<?xml version="1.0" standalone="no"?>
<!DOCTYPE svg PUBLIC "-//W3C//DTD SVG 20010904//EN"
 "http://www.w3.org/TR/2001/REC-SVG-20010904/DTD/svg10.dtd">
<svg version="1.0" xmlns="http://www.w3.org/2000/svg"
 width="492.000000pt" height="470.000000pt" viewBox="0 0 492.000000 470.000000"
 preserveAspectRatio="xMidYMid meet">

<g transform="translate(0.000000,470.000000) scale(0.100000,-0.100000)"
fill="#000000" stroke="none">
<path d="M3117 4606 c-12 -54 -61 -150 -109 -213 -56 -73 -114 -114 -353 -253
-115 -67 -241 -140 -280 -162 -164 -96 -233 -155 -291 -249 -47 -79 -64 -163
-64 -334 l0 -140 24 65 c30 86 51 125 98 185 75 94 98 110 537 361 276 158
351 217 400 315 43 85 52 145 49 314 -2 110 -5 140 -11 111z"/>
<path d="M3112 4104 c-21 -78 -80 -174 -151 -244 -68 -68 -90 -82 -461 -295
-253 -146 -298 -175 -359 -240 -97 -102 -121 -186 -121 -409 l1 -141 28 75
c68 184 139 250 461 434 386 220 429 247 492 309 103 101 131 194 126 416 -3
140 -3 143 -16 95z"/>
<path d="M3112 3614 c-30 -111 -132 -249 -235 -317 -29 -19 -144 -87 -256
-151 -268 -154 -310 -183 -411 -285 -224 -226 -249 -501 -63 -693 35 -36 158
-108 184 -108 7 0 -7 13 -32 28 -67 43 -127 117 -145 180 -36 124 -2 261 89
355 43 44 72 62 447 277 256 147 315 190 368 269 58 88 73 162 70 345 -3 144
-3 148 -16 100z"/>
<path d="M1476 2609 c-10 -49 -7 -227 5 -299 59 -364 342 -680 699 -779 234
-64 475 -43 689 62 341 166 551 503 551 882 0 50 -3 107 -6 128 -7 37 -7 37
-53 37 l-46 0 -1 -157 c0 -142 -3 -167 -27 -246 -101 -326 -349 -558 -666
-622 -102 -21 -312 -16 -406 10 -88 24 -230 96 -310 157 -136 105 -256 285
-307 463 -20 68 -23 103 -23 238 l0 157 -46 0 c-44 0 -47 -2 -53 -31z"/>
<path d="M1775 2623 c-16 -39 -17 -218 -1 -293 30 -145 132 -308 247 -397 71
-54 183 -109 261 -128 83 -19 248 -19 323 0 325 84 542 380 522 710 -7 121 -9
125 -64 125 -42 0 -45 -2 -39 -22 3 -13 9 -57 12 -98 10 -111 -10 -205 -63
-312 -103 -205 -300 -328 -528 -328 -278 0 -516 190 -581 465 -16 69 -15 217
2 273 6 21 3 22 -39 22 -33 0 -47 -5 -52 -17z"/>
<path d="M2575 1261 l-40 -6 -3 -387 -2 -388 50 0 50 0 0 145 0 145 78 0 c239
1 362 86 362 250 0 127 -74 208 -218 239 -55 11 -207 13 -277 2z m302 -111
c57 -25 78 -61 78 -131 -1 -65 -20 -101 -67 -125 -35 -18 -215 -41 -241 -31
-15 6 -17 25 -17 156 l0 150 43 3 c71 7 160 -3 204 -22z"/>
<path d="M3270 1264 c-14 -3 -35 -7 -47 -9 l-23 -5 0 -379 0 -378 46 -7 c26
-3 99 -6 163 -6 186 0 289 37 331 120 57 113 22 236 -80 282 -16 7 -30 15 -30
18 0 3 13 13 29 23 37 21 71 91 71 143 -1 84 -50 146 -142 180 -42 16 -262 28
-318 18z m277 -107 c51 -27 76 -66 70 -110 -11 -78 -62 -107 -204 -115 l-103
-5 0 128 0 128 103 -5 c67 -3 113 -10 134 -21z m41 -339 c38 -18 50 -31 60
-62 17 -52 6 -100 -30 -136 -39 -39 -83 -50 -205 -50 l-103 0 0 141 0 142 116
-6 c93 -4 124 -10 162 -29z"/>
<path d="M1120 993 c0 -333 13 -393 97 -462 58 -47 120 -64 222 -59 99 5 150
26 199 83 65 73 66 80 70 408 l3 297 -55 0 -56 0 0 -275 c0 -298 -3 -321 -56
-376 -75 -78 -232 -55 -288 41 -20 33 -21 54 -24 323 l-3 287 -55 0 -54 0 0
-267z"/>
<path d="M1890 870 l0 -390 250 0 250 0 0 45 0 45 -192 2 -193 3 0 135 0 135
160 5 160 5 0 40 0 40 -162 3 -163 2 0 115 0 115 185 0 185 0 0 45 0 45 -240
0 -240 0 0 -390z"/>
</g>
</svg>
