<?xml version="1.0" encoding="UTF-8" standalone="no"?>
<svg
   xmlns:dc="http://purl.org/dc/elements/1.1/"
   xmlns:cc="http://creativecommons.org/ns#"
   xmlns:rdf="http://www.w3.org/1999/02/22-rdf-syntax-ns#"
   xmlns:svg="http://www.w3.org/2000/svg"
   xmlns="http://www.w3.org/2000/svg"
   viewBox="0 0 708.33331 793.70667"
   height="793.70667"
   width="708.33331"
   xml:space="preserve"
   id="svg2"
   version="1.1"><metadata
     id="metadata8"><rdf:RDF><cc:Work
         rdf:about=""><dc:format>image/svg+xml</dc:format><dc:type
           rdf:resource="http://purl.org/dc/dcmitype/StillImage" /></cc:Work></rdf:RDF></metadata><defs
     id="defs6"><clipPath
       id="clipPath18"
       clipPathUnits="userSpaceOnUse"><path
         id="path16"
         d="M 0,595.28 H 531.25 V 0 H 0 Z" /></clipPath></defs><g
     transform="matrix(1.3333333,0,0,-1.3333333,0,793.70667)"
     id="g10"><g
       id="g12"><g
         clip-path="url(#clipPath18)"
         id="g14"><g
           transform="translate(176.5103,138.9509)"
           id="g20"><path
             id="path22"
             style="fill:#231f20;fill-opacity:1;fill-rule:evenodd;stroke:none"
             d="m 0,0 -18.413,19.427 c 2.495,4.072 2.814,9.444 0.347,14.12 L -33.855,63.46 c -2.672,5.089 -7.942,7.978 -13.182,7.812 l -5.384,30.489 c 4.277,2.427 7.194,7.143 7.194,12.554 v 33.741 c 0,6.757 -4.586,12.45 -10.69,13.927 v 29.334 c 6.104,1.466 10.69,7.155 10.69,13.915 v 33.753 c 0,7.864 -6.217,14.313 -13.798,14.313 -7.58,0 -13.801,-6.449 -13.801,-14.313 v -33.753 c 0,-6.76 4.601,-12.449 10.703,-13.927 v -29.322 c -6.102,-1.465 -10.703,-7.158 -10.703,-13.927 v -33.741 c 0,-7.876 6.221,-14.328 13.801,-14.328 0.205,0 0.41,0.015 0.615,0.027 l 5.37,-30.386 c -6.525,-3.56 -8.863,-11.987 -5.24,-18.838 l 15.777,-29.925 c 3.674,-6.95 12.181,-9.815 18.901,-6.319 0.296,0.139 0.565,0.308 0.836,0.473 L -4.805,-3.895 c -0.525,-0.706 -1.002,-1.462 -1.4,-2.271 -3.24,-6.812 -0.039,-15.125 7.104,-18.516 l 34.86,-16.254 2.223,4.779 -33.113,15.559 c -4.612,2.149 -7.04,6.745 -5.409,10.152 l 0.655,1.363 5.167,-5.448 c 1.155,-1.222 3.135,-1.3 4.368,-0.13 1.258,1.155 1.309,3.11 0.142,4.332 l -5.23,5.523 c 2.199,0.631 4.934,0.41 7.517,-0.797 l 32.865,-15.61 2.444,4.959 L 12.785,0.024 C 8.531,2.03 3.816,1.876 0,0 m -67.417,207.045 v 30.142 c 0,5.062 3.122,9.212 6.938,9.212 h 2.893 c 3.828,0 6.923,-4.15 6.923,-9.212 v -30.142 c 0,-4.32 -2.247,-7.954 -5.254,-8.944 v 3.828 c 0,1.683 -1.413,3.059 -3.108,3.059 -1.71,0 -3.098,-1.376 -3.098,-3.059 v -3.828 c -3.02,0.978 -5.294,4.624 -5.294,8.944 m 6.938,-100.144 c -3.816,0 -6.938,4.151 -6.938,9.212 v 30.142 c 0,4.32 2.274,7.955 5.294,8.944 v -7.71 c 0,-1.683 1.388,-3.071 3.098,-3.071 1.695,0 3.108,1.388 3.108,3.071 v 7.71 c 3.007,-1.001 5.254,-4.639 5.254,-8.944 v -30.142 c 0,-3.109 -1.167,-5.884 -2.968,-7.555 l -0.679,3.881 c -0.295,1.645 -1.903,2.776 -3.571,2.48 -1.699,-0.296 -2.815,-1.888 -2.532,-3.56 l 0.782,-4.458 z m 32.353,-86.908 c -3.352,-1.749 -8.054,0.486 -10.432,4.959 l -14.096,26.725 c -2.12,4.036 -1.671,8.557 0.899,10.703 l 0.824,-4.637 c 0.307,-1.647 1.9,-2.775 3.571,-2.494 1.684,0.295 2.802,1.903 2.519,3.547 l -1.092,6.142 c 2.98,0.102 6.268,-2.031 8.144,-5.551 L -23.691,32.66 c 1.541,-2.917 1.722,-6.09 0.732,-8.453 l -4.845,5.114 c -1.182,1.234 -3.161,1.285 -4.382,0.126 -1.234,-1.155 -1.31,-3.106 -0.154,-4.328 l 4.652,-4.908 z" /></g><g
           transform="translate(428.9648,344.1833)"
           id="g24"><path
             id="path26"
             style="fill:#231f20;fill-opacity:1;fill-rule:evenodd;stroke:none"
             d="m 0,0 v 33.752 c 0,7.864 -6.232,14.314 -13.816,14.314 -7.566,0 -13.786,-6.45 -13.786,-14.314 V 0 c 0,-6.76 4.597,-12.449 10.691,-13.928 v -29.321 c -6.094,-1.466 -10.691,-7.158 -10.691,-13.915 v -33.753 c 0,-5.411 2.932,-10.127 7.198,-12.555 l -5.388,-30.488 c -5.255,0.166 -10.51,-2.724 -13.194,-7.812 l -15.778,-29.914 c -2.478,-4.675 -2.159,-10.047 0.332,-14.131 l -18.413,-19.415 c -3.801,1.876 -8.53,2.03 -12.741,0.024 l -34.631,-16.278 2.444,-4.959 32.868,15.61 c 2.57,1.207 5.303,1.428 7.5,0.797 l -5.225,-5.524 c -1.171,-1.221 -1.11,-3.176 0.139,-4.332 1.23,-1.169 3.209,-1.091 4.355,0.13 l 5.165,5.449 0.681,-1.364 c 1.636,-3.406 -0.808,-8.003 -5.423,-10.151 l -33.098,-15.56 2.25,-4.778 34.805,16.254 c 7.186,3.391 10.371,11.704 7.12,18.516 -0.386,0.808 -0.863,1.577 -1.4,2.271 l 17.949,18.913 c 0.283,-0.165 0.555,-0.334 0.851,-0.473 6.72,-3.496 15.233,-0.63 18.913,6.32 l 15.789,29.925 c 3.607,6.862 1.262,15.278 -5.267,18.838 l 5.369,30.385 c 0.205,-0.011 0.411,-0.011 0.616,-0.011 7.584,0 13.816,6.437 13.816,14.313 v 33.753 c 0,6.757 -4.604,12.449 -10.703,13.915 v 29.321 C -4.604,-12.449 0,-6.76 0,0 M -20.199,-153.556 -34.28,-180.28 c -2.366,-4.473 -7.059,-6.708 -10.449,-4.947 l -0.423,0.206 4.651,4.908 c 1.171,1.221 1.105,3.173 -0.127,4.328 -1.261,1.159 -3.226,1.107 -4.397,-0.126 l -4.857,-5.114 c -0.99,2.363 -0.797,5.536 0.76,8.453 l 14.094,26.726 c 1.851,3.534 5.152,5.654 8.12,5.551 L -28,-146.437 c -0.271,-1.643 0.862,-3.251 2.546,-3.546 1.653,-0.282 3.264,0.846 3.548,2.494 l 0.832,4.636 c 2.57,-2.145 3.016,-6.667 0.875,-10.703 M -22.19,1.813 v 30.142 c 0,5.061 3.119,9.212 6.926,9.212 h 2.914 c 3.788,0 6.926,-4.151 6.926,-9.212 V 1.813 c 0,-4.32 -2.263,-7.955 -5.279,-8.944 v 3.827 c 0,1.684 -1.376,3.059 -3.113,3.059 -1.683,0 -3.095,-1.375 -3.095,-3.059 v -3.827 c -3.017,0.989 -5.279,4.624 -5.279,8.944 m 16.766,-60.791 v -30.141 c 0,-5.062 -3.138,-9.212 -6.926,-9.212 h -0.863 l 0.784,4.458 c 0.284,1.672 -0.843,3.264 -2.515,3.56 -1.66,0.295 -3.288,-0.835 -3.573,-2.48 l -0.68,-3.882 c -1.798,1.671 -2.993,4.434 -2.993,7.556 v 30.141 c 0,4.321 2.262,7.956 5.279,8.945 v -7.71 c 0,-1.684 1.412,-3.083 3.095,-3.083 1.737,0 3.113,1.399 3.113,3.083 v 7.71 c 3.016,-0.989 5.279,-4.624 5.279,-8.945" /></g><g
           transform="translate(264.6519,128.031)"
           id="g28"><path
             id="path30"
             style="fill:#231f20;fill-opacity:1;fill-rule:evenodd;stroke:none"
             d="m 0,0 8.417,-18.169 19.8,-2.456 -14.609,-13.632 3.815,-19.671 -17.423,9.726 -17.472,-9.726 3.816,19.671 -14.61,13.632 19.802,2.456 z" /></g><g
           transform="translate(237.708,189.3308)"
           id="g32"><path
             id="path34"
             style="fill:#231f20;fill-opacity:1;fill-rule:nonzero;stroke:none"
             d="M 0,0 V 0.012 0.039 Z" /></g><g
           transform="translate(237.708,189.3181)"
           id="g36"><path
             id="path38"
             style="fill:#231f20;fill-opacity:1;fill-rule:nonzero;stroke:none"
             d="M 0,0 V 0.013 Z" /></g><g
           transform="translate(411.9873,495.2444)"
           id="g40"><path
             id="path42"
             style="fill:#231f20;fill-opacity:1;fill-rule:nonzero;stroke:none"
             d="m 0,0 c 0.386,0.796 0.429,1.71 0.078,2.519 -0.362,0.823 -2.195,1.761 -3.046,2.03 -0.935,0.295 -1.551,0.464 -2.275,0.669 -0.536,0.166 -1.153,0.332 -1.991,0.592 -0.284,0.087 -0.561,0.127 -0.874,0.127 -1.075,0 -2.052,-0.564 -2.595,-1.479 L -11.18,3.843 c -1.798,0.525 -3.583,1.041 -5.345,1.541 l -0.175,0.86 c -0.03,0.477 -0.145,0.926 -0.373,1.352 -0.41,0.705 -1.057,1.206 -1.841,1.423 -1.563,0.438 -2.54,0.733 -3.493,1.041 -1.195,0.374 -2.322,0.721 -4.356,1.234 -0.254,0.066 -0.501,0.09 -0.755,0.09 -1.375,0 -2.57,-0.923 -2.919,-2.247 l -0.785,-2.969 c -0.169,-0.654 -0.295,-1.143 -0.41,-1.631 -0.127,-0.489 -0.26,-0.978 -0.422,-1.62 l -0.748,-2.8 c -0.193,-0.784 -0.079,-1.619 0.32,-2.302 0.156,-0.256 0.452,-0.591 2.292,-2.606 0.87,-0.953 1.973,-2.147 2.643,-2.932 -0.163,-0.359 -0.345,-0.706 -0.525,-1.053 l -0.103,-0.217 -0.615,-1.222 c -0.223,-0.449 -0.978,-1.939 -1.237,-2.452 -0.796,-1.62 -2.323,-4.447 -3.082,-5.668 -0.387,0.09 -0.773,0.181 -1.141,0.284 -0.224,0.063 -0.44,0.09 -0.646,0.09 -0.139,0.036 -0.476,0.142 -0.669,0.205 -0.253,0.075 -0.489,0.154 -0.664,0.205 -0.555,0.142 -1.08,0.272 -1.623,0.41 -0.386,0.103 -0.785,0.205 -1.207,0.308 l 1.618,6.812 c 0.192,0.772 0.065,1.605 -0.345,2.286 -0.41,0.682 -1.115,1.183 -1.888,1.364 -2.902,0.693 -5.834,1.349 -8.7,1.951 -0.205,0.04 -0.422,0.064 -0.615,0.064 -0.604,0 -1.182,-0.166 -1.671,-0.501 -0.694,-0.449 -1.159,-1.155 -1.297,-1.952 l -1.376,-6.965 c -0.332,0.079 -0.682,0.154 -1.08,0.232 -0.169,0.04 -0.344,0.052 -0.525,0.063 -0.157,0.013 -0.58,0.119 -0.796,0.182 -0.284,0.063 -0.513,0.114 -0.682,0.142 -0.308,0.063 -0.615,0.126 -0.94,0.177 -0.074,2.341 -0.038,8.673 -0.025,10.975 v 1.028 c 2.015,1.041 4.265,2.067 4.946,2.236 0.158,-0.027 0.321,-0.052 0.478,-0.052 1.411,0 2.618,0.962 2.944,2.326 l 0.308,1.27 0.048,0.244 c 0.09,0.387 0.18,0.785 0.307,1.298 0.145,0.591 0.247,1.043 0.363,1.478 l 0.011,0.051 0.079,0.323 0.06,0.283 c 0.091,0.344 0.182,0.706 0.284,1.144 l 0.724,2.98 c 0.205,0.784 0.059,1.617 -0.362,2.287 -0.422,0.693 -1.117,1.182 -1.901,1.36 -1.466,0.335 -2.479,0.58 -3.457,0.824 -1.363,0.347 -2.648,0.666 -4.856,1.119 -0.194,0.036 -0.411,0.063 -0.604,0.063 -1.194,0 -2.299,-0.733 -2.775,-1.825 l -0.41,-0.733 c -0.477,0.091 -0.929,0.193 -1.364,0.296 -0.977,0.22 -1.966,0.437 -3.058,0.654 -0.013,0.039 -0.013,0.079 -0.013,0.103 v 0.015 c 0.079,0.718 -0.102,1.451 -0.513,2.054 -0.452,0.67 -1.171,1.119 -1.954,1.273 -3.675,0.655 -5.484,0.963 -9.188,1.554 l -0.013,0.015 h -0.012 c -0.157,0.012 -0.283,0.024 -0.422,0.024 -1.273,0 -2.389,-0.769 -2.841,-1.94 l -0.344,-0.721 c -0.429,0.067 -0.84,0.142 -1.25,0.208 l -0.035,0.013 c -1.08,0.178 -2.101,0.358 -3.229,0.54 -0.011,0.035 -0.023,0.09 -0.053,0.114 0.066,0.733 -0.127,1.466 -0.574,2.042 -0.476,0.655 -1.213,1.093 -2.021,1.198 -1.375,0.19 -2.377,0.344 -3.276,0.486 -1.502,0.22 -2.787,0.413 -5.123,0.694 -0.12,0.027 -0.258,0.027 -0.361,0.027 -1.532,0 -2.817,-1.131 -3.005,-2.634 l -0.222,-1.632 -0.013,-0.181 c -0.048,-0.359 -0.103,-0.745 -0.162,-1.221 -0.079,-0.553 -0.133,-1.002 -0.182,-1.412 l -0.012,-0.079 -0.042,-0.256 -0.024,-0.335 c -0.066,-0.371 -0.103,-0.769 -0.181,-1.27 l -0.362,-2.878 c -0.085,-0.811 0.12,-1.593 0.621,-2.238 0.446,-0.576 1.116,-0.974 1.834,-1.116 0.658,-0.41 2.661,-2.48 3.536,-3.379 0.229,-0.244 0.434,-0.465 0.627,-0.657 -0.126,-0.423 -0.331,-1.18 -0.73,-2.492 -0.784,-2.696 -2.238,-7.708 -2.92,-9.946 -1.683,0.142 -3.209,0.284 -4.652,0.402 l -0.036,0.012 h -0.024 -0.103 -0.042 -0.011 c -0.181,0 -0.899,0.063 -1.244,0.102 -0.235,0.024 -0.44,0.04 -0.567,0.051 -0.386,0.04 -0.718,0.064 -1.044,0.091 h -0.059 l 0.385,7.336 c 0.091,1.644 -1.17,3.056 -2.804,3.174 -2.927,0.217 -5.908,0.398 -8.839,0.552 h -0.025 -0.027 -0.075 -0.012 c -0.784,0 -1.517,-0.284 -2.097,-0.809 -0.576,-0.567 -0.938,-1.351 -0.95,-2.16 l -0.091,-7.221 c -1.091,0.051 -2.171,0.102 -3.35,0.154 h -0.028 -0.051 -0.012 -0.016 c -0.216,0 -0.883,0.027 -1.348,0.051 -0.229,0.015 -0.449,0.015 -0.564,0.015 -0.425,0.024 -0.836,0.039 -1.246,0.051 h -0.014 c -0.038,0.142 -0.065,0.283 -0.077,0.398 -0.307,2.121 -0.641,4.471 -1.016,7.029 l -0.383,2.697 -0.232,1.619 c -0.09,0.54 -0.166,1.066 -0.245,1.606 0.682,0.488 1.195,0.847 2.006,1.438 0.114,0.067 0.241,0.154 0.384,0.272 1.016,0.769 1.698,1.195 1.994,1.258 l 0.048,-0.012 h 0.015 c 1.592,0 2.917,1.258 3.019,2.838 0.036,0.516 0.064,0.914 0.091,1.297 l 0.023,0.284 c 0.028,0.398 0.04,0.796 0.091,1.312 0.039,0.643 0.064,1.144 0.103,1.644 v 0.051 c 0.024,0.489 0.063,0.99 0.102,1.657 0.028,0.5 0.064,0.898 0.091,1.272 l 0.012,0.245 0.013,0.141 c 0.039,0.423 0.066,0.861 0.117,1.4 0.039,0.797 -0.233,1.606 -0.76,2.196 -0.525,0.592 -1.285,0.966 -2.094,1.017 -1.182,0.075 -2.069,0.126 -2.827,0.178 -1.619,0.102 -2.763,0.193 -5.332,0.283 h -0.013 l -0.063,0.013 h -0.012 -0.014 c -1.452,0 -2.659,-0.99 -2.969,-2.362 -0.103,-0.154 -0.242,-0.375 -0.371,-0.618 -1.593,0.066 -3.059,0.117 -4.691,0.153 -0.063,0.142 -0.115,0.271 -0.166,0.374 -0.064,0.682 -0.346,1.309 -0.824,1.813 -0.552,0.576 -1.321,0.911 -2.132,0.935 -3.533,0.051 -5.346,0.079 -8.468,0.079 h -0.847 c -1.439,0 -2.658,-1.002 -2.954,-2.401 l -0.22,-0.67 c -1.684,0 -3.161,-0.04 -4.703,-0.064 l -0.512,0.963 c -0.142,0.465 -0.411,0.875 -0.761,1.206 -0.576,0.54 -1.321,0.851 -2.132,0.851 h -0.013 -0.012 c -2.736,-0.066 -3.792,-0.102 -5.692,-0.193 -0.667,-0.039 -1.439,-0.079 -2.428,-0.118 -1.672,-0.063 -2.968,-1.475 -2.89,-3.146 l 0.383,-9.315 c 0.078,-1.62 1.415,-2.905 3.035,-2.905 0.371,-0.127 1.219,-0.808 1.592,-1.104 0.269,-0.221 0.489,-0.398 0.694,-0.54 0.978,-0.67 1.554,-1.053 2.468,-1.695 -0.091,-0.58 -0.169,-1.158 -0.26,-1.723 l -0.051,-0.284 -0.178,-1.245 -0.142,-0.963 c -0.102,-0.642 -0.22,-1.415 -0.256,-1.761 -0.374,-2.48 -0.721,-4.845 -1.041,-7.222 -0.039,-0.127 -0.066,-0.295 -0.117,-0.449 -0.564,-0.024 -1.129,-0.051 -1.695,-0.075 -0.128,-0.016 -0.348,-0.028 -0.592,-0.04 -0.398,-0.024 -1.092,-0.063 -1.273,-0.063 h -0.024 l -0.012,-0.016 h -0.067 -0.024 -0.027 c -0.642,-0.023 -1.077,-0.063 -1.526,-0.102 -0.118,-0.012 -0.22,-0.012 -0.335,-0.024 v 7.155 c 0,0.836 -0.347,1.632 -0.965,2.211 -0.552,0.513 -1.298,0.809 -2.054,0.809 h -0.028 -0.024 -0.078 -0.024 -0.028 c -2.941,-0.194 -5.937,-0.41 -8.89,-0.655 -1.608,-0.13 -2.826,-1.502 -2.763,-3.134 l 0.296,-7.375 c -0.347,-0.028 -0.655,-0.067 -0.95,-0.103 -0.45,-0.039 -0.914,-0.102 -1.49,-0.154 -0.143,-0.015 -0.348,-0.039 -0.592,-0.067 -0.347,-0.035 -0.989,-0.114 -1.143,-0.114 h -0.039 -0.027 -0.128 -0.038 l -0.028,-0.012 c -1.076,-0.103 -2.247,-0.22 -3.698,-0.374 -0.091,0.169 -0.169,0.347 -0.205,0.477 -0.721,2.313 -1.478,4.636 -2.262,7.116 -0.115,0.386 -0.426,1.3 -0.643,1.979 l -0.217,0.681 -0.414,1.261 -0.023,0.091 c -0.154,0.473 -0.308,0.95 -0.45,1.412 0.54,0.564 0.99,1.013 1.683,1.695 0.064,0.051 0.154,0.168 0.281,0.296 1.107,1.142 1.592,1.517 1.8,1.607 0.758,0.115 1.476,0.501 1.952,1.093 0.501,0.642 0.745,1.426 0.655,2.234 l -0.308,2.878 c -0.075,0.655 -0.114,1.156 -0.166,1.657 l -0.5,4.741 c -0.157,1.53 -1.454,2.7 -3.008,2.7 h -0.027 -0.036 l -0.157,-0.015 h -0.036 -0.039 c -2.351,-0.244 -3.636,-0.41 -5.255,-0.615 h -0.012 c -0.887,-0.118 -1.892,-0.244 -3.225,-0.398 -0.799,-0.091 -1.53,-0.516 -2.019,-1.143 -0.359,-0.465 -0.578,-1.017 -0.63,-1.609 l -0.114,-0.591 c -1.53,-0.205 -2.995,-0.41 -4.525,-0.627 l -0.268,-0.04 -0.347,0.734 c -0.426,1.167 -1.593,1.978 -2.839,1.978 -0.142,0 -0.296,-0.014 -0.425,-0.027 -2.275,-0.32 -3.56,-0.552 -5.05,-0.82 l 0.09,-0.67 -0.114,0.67 c -0.966,-0.169 -1.955,-0.35 -3.343,-0.579 -0.796,-0.115 -1.514,-0.58 -1.978,-1.222 -0.399,-0.564 -0.616,-1.246 -0.565,-1.927 -0.012,-0.076 -0.051,-0.154 -0.051,-0.257 -1.348,-0.232 -2.633,-0.474 -3.997,-0.733 l -0.126,-0.024 c -0.245,-0.039 -0.477,-0.09 -0.71,-0.13 -0.063,0.091 -0.102,0.166 -0.154,0.245 -0.011,0.027 -0.051,0.078 -0.075,0.114 -0.347,1.325 -1.544,2.262 -2.916,2.262 -0.17,0 -0.36,-0.012 -0.54,-0.051 -2.173,-0.398 -3.47,-0.694 -4.818,-1.002 -1.005,-0.232 -2.03,-0.476 -3.535,-0.772 -0.797,-0.165 -1.491,-0.642 -1.928,-1.309 -0.423,-0.67 -0.576,-1.505 -0.41,-2.286 0.141,-0.709 0.271,-1.198 0.359,-1.735 l 0.283,-1.261 c 0.142,-0.603 0.244,-1.064 0.335,-1.514 l 0.012,-0.118 0.039,-0.126 c 0.103,-0.465 0.206,-0.926 0.32,-1.53 l 0.631,-2.842 c 0.295,-1.372 1.541,-2.389 2.941,-2.389 0.181,0 0.346,0.027 0.503,0.051 0.372,-0.075 1.334,-0.615 1.735,-0.847 0.308,-0.181 0.564,-0.32 0.781,-0.422 1.119,-0.528 1.762,-0.823 2.752,-1.3 0.011,-0.501 0.011,-0.99 0.011,-1.476 l 0.04,-1.08 0.012,-0.642 c 0.012,-0.694 0.027,-1.722 0.039,-2.144 0.063,-2.598 0.103,-5.066 0.18,-7.545 0,-0.075 -0.026,-0.257 -0.09,-0.437 -1.08,-0.218 -2.018,-0.399 -2.877,-0.592 -0.169,-0.024 -0.387,-0.087 -0.631,-0.166 -0.232,-0.051 -0.63,-0.166 -0.784,-0.192 -0.178,0 -0.347,-0.025 -0.552,-0.064 h -0.012 c -0.836,-0.181 -1.671,-0.374 -2.507,-0.553 l -1.336,6.809 c -0.154,0.812 -0.656,1.518 -1.337,1.967 -0.488,0.308 -1.052,0.476 -1.632,0.476 -0.244,0 -0.473,-0.027 -0.706,-0.09 -2.838,-0.669 -5.68,-1.403 -8.428,-2.148 -1.593,-0.434 -2.546,-2.015 -2.16,-3.623 l 1.647,-6.859 c -0.63,-0.169 -1.197,-0.323 -1.737,-0.465 -0.347,-0.103 -1.594,-0.462 -1.952,-0.551 l -0.205,-0.064 c -0.063,0.115 -0.13,0.217 -0.193,0.307 -1.053,2.173 -2.196,4.499 -3.379,6.887 l -0.374,0.745 c -0.307,0.631 -0.706,1.403 -0.847,1.699 l -0.616,1.231 c -0.31,0.618 -0.603,1.221 -0.926,1.84 0.488,0.639 0.86,1.14 1.427,1.912 0.051,0.078 0.141,0.181 0.244,0.347 0.923,1.285 1.337,1.722 1.542,1.849 0.745,0.22 1.36,0.709 1.758,1.388 0.413,0.67 0.516,1.517 0.311,2.289 l -0.733,2.8 c -0.142,0.552 -0.256,1.001 -0.359,1.427 l -0.066,0.193 c -0.115,0.488 -0.245,0.977 -0.422,1.631 l -0.773,2.969 c -0.347,1.324 -1.541,2.247 -2.929,2.247 -0.257,0 -0.513,-0.024 -0.745,-0.09 -1.439,-0.359 -2.417,-0.591 -3.354,-0.809 -1.309,-0.295 -2.544,-0.591 -4.715,-1.194 -0.769,-0.221 -1.439,-0.721 -1.825,-1.427 -0.269,-0.474 -0.399,-1.016 -0.386,-1.554 l -0.103,-0.965 c -1.719,-0.501 -3.454,-1.001 -5.189,-1.502 l -0.373,0.461 c -0.54,0.926 -1.53,1.479 -2.595,1.479 -0.296,0 -0.603,-0.04 -0.887,-0.13 -0.899,-0.269 -1.53,-0.41 -2.133,-0.537 -0.669,-0.142 -1.336,-0.296 -2.235,-0.567 -0.85,-0.269 -1.529,-0.887 -1.876,-1.708 -0.347,-0.823 -0.323,-1.749 0.076,-2.533 l 4.252,-8.504 c 0.181,-0.359 0.426,-0.67 0.734,-0.939 0.024,-0.398 0.141,-0.784 0.307,-1.158 l 0.978,-1.939 c 0.166,-0.32 0.359,-0.604 0.631,-0.848 0.035,-0.347 0.138,-0.694 0.295,-1.002 l 1.888,-3.788 c 0.166,-0.323 2.03,-4.049 5.536,-11.065 l 0.283,-0.564 5.913,-11.834 c 0.166,-0.323 2.515,-4.767 4.458,-8.441 3.403,-5.952 -2.018,-6.784 -2.932,-13.505 0,-4.47 5.396,-8.66 14.944,-12.335 21.122,-8.12 62.497,-10.651 110.075,-10.651 47.589,0 88.965,2.531 110.087,10.651 9.55,3.675 14.944,7.865 14.944,12.335 -0.375,6.024 -4.308,6.568 -2.093,11.858 C -23.396,-46.126 0,0 0,0 m -9.979,-13.155 -1.907,-3.781 c -0.048,-0.114 -0.175,-0.178 -0.295,-0.178 -0.036,0 -0.073,0 -0.115,0.013 -4.229,1.541 -8.724,3.019 -13.363,4.419 -0.103,0.039 -0.181,0.102 -0.205,0.193 -0.048,0.103 -0.048,0.205 0,0.284 l 0.543,1.08 c 0.385,0.784 0.785,1.58 1.171,2.361 0.059,0.118 0.174,0.194 0.307,0.194 0.025,0 0.06,-0.013 0.09,-0.025 4.429,-1.26 9.002,-2.633 13.563,-4.087 0.109,-0.024 0.181,-0.103 0.211,-0.178 0.037,-0.102 0.037,-0.208 0,-0.295 m 1.889,3.803 -0.966,-1.942 c -0.054,-0.115 -0.181,-0.193 -0.307,-0.193 -0.031,0 -0.067,0.014 -0.091,0.027 -4.833,1.49 -9.665,2.905 -14.389,4.214 -0.066,0.012 -0.133,0.063 -0.169,0.13 -0.797,1.092 -1.207,1.643 -2.003,2.723 -0.042,0.037 -0.079,0.103 -0.079,0.206 0,0.178 0.14,0.332 0.332,0.332 l 0.055,0.334 -0.024,-0.334 c 0.024,0 0.047,-0.012 0.072,-0.012 5.732,-1.542 11.565,-3.237 17.376,-5.011 0.091,-0.039 0.15,-0.103 0.205,-0.193 0.036,-0.103 0.036,-0.194 -0.012,-0.281 m -21.086,8.106 c -0.091,0.027 -0.17,0.079 -0.205,0.154 -0.055,0.078 -0.055,0.168 -0.043,0.259 l 0.748,2.799 c 0.169,0.655 0.283,1.144 0.41,1.633 0.139,0.488 0.26,0.977 0.423,1.631 l 0.784,2.957 c 0.042,0.154 0.169,0.256 0.32,0.256 0.03,0 0.054,0 0.079,-0.015 3.522,-0.899 4.397,-0.989 8.029,-1.991 0.079,-0.024 0.157,-0.076 0.194,-0.154 0.054,-0.075 0.066,-0.178 0.041,-0.257 l 0.266,-2.684 c -0.023,-0.091 -0.012,-0.181 0.042,-0.259 0.037,-0.076 0.115,-0.127 0.193,-0.166 2.722,-0.746 5.497,-1.542 8.285,-2.39 0.053,0 0.078,-0.011 0.102,-0.011 0.156,0 0.283,0.102 0.325,0.244 l 1.424,1.837 c 0.055,0.154 0.169,0.229 0.32,0.229 0.043,0 0.067,0 0.09,-0.012 2.003,-0.591 2.751,-0.603 4.369,-1.092 0.078,-0.027 0.157,-0.102 0.193,-0.193 0.055,-0.09 0.042,-0.193 0,-0.28 l -4.254,-8.507 c -0.078,-0.118 -0.181,-0.181 -0.308,-0.181 -0.023,0 -0.066,0 -0.09,0.012 -7.191,2.223 -14.516,4.304 -21.737,6.181 m -1.298,-20.25 c 1.063,2.16 2.208,4.473 3.391,6.85 0.049,0.115 0.169,0.19 0.296,0.19 0.024,0 0.066,-0.011 0.102,-0.024 2.867,-0.86 7.518,-2.326 10.112,-3.201 0.091,-0.035 0.169,-0.102 0.205,-0.189 0.036,-0.079 0.024,-0.181 0,-0.272 l -3.354,-6.848 c -0.049,-0.114 -0.181,-0.181 -0.308,-0.181 -0.024,0 -0.067,0 -0.103,0.012 -2.721,0.903 -7.348,2.354 -10.123,3.189 -0.102,0.024 -0.17,0.091 -0.218,0.178 -0.042,0.103 -0.03,0.193 0,0.296 m -0.886,-2.287 c 0.024,0 0.06,0 0.09,-0.012 4.61,-1.349 9.092,-2.802 13.387,-4.316 0.091,-0.028 0.163,-0.091 0.206,-0.181 0.024,-0.091 0.024,-0.194 -0.012,-0.281 l -2.945,-5.885 c -0.065,-0.118 -0.192,-0.182 -0.307,-0.182 -0.037,0 -0.079,0 -0.103,0.013 -3.022,1.016 -6.153,2.005 -9.303,2.943 -1.194,0.359 -2.515,0.734 -4.036,1.168 -0.102,0.015 -0.181,0.091 -0.217,0.169 -0.037,0.103 -0.037,0.205 0,0.296 1.068,2.22 2.034,4.226 2.932,6.09 0.049,0.115 0.175,0.178 0.308,0.178 m -3.97,2.905 c 0.048,0.142 0.192,0.232 0.332,0.232 0.036,0 0.054,0 0.078,-0.015 0.67,-0.154 1.31,-0.319 1.967,-0.5 0.091,-0.013 0.175,-0.091 0.205,-0.178 0.049,-0.091 0.049,-0.194 0,-0.284 -1.206,-2.507 -2.329,-4.82 -3.42,-7.092 -0.049,-0.118 -0.182,-0.193 -0.309,-0.193 -0.024,0 -0.047,0.012 -0.066,0.012 l -0.64,0.166 c -0.09,0.015 -0.169,0.079 -0.216,0.157 -0.042,0.075 -0.055,0.166 -0.025,0.257 z M -92.482,1.067 c -0.103,0 -0.193,0.064 -0.247,0.142 -0.061,0.088 -0.061,0.193 -0.037,0.296 l 0.465,1.412 c 0.175,0.567 0.368,1.131 0.549,1.695 0.055,0.142 0.181,0.232 0.319,0.232 h 0.043 c 10.383,-1.348 20.851,-3.019 31.095,-5.01 0.15,-0.027 0.283,-0.167 0.265,-0.335 -0.012,-0.628 -0.012,-1.258 -0.048,-1.9 l -0.012,-0.951 c -0.013,-0.09 -0.055,-0.193 -0.133,-0.259 -0.06,-0.036 -0.127,-0.076 -0.205,-0.076 -0.024,0 -0.037,0.012 -0.06,0.012 -10.244,1.928 -21.008,3.521 -31.994,4.742 m 18.811,-4.907 -0.772,-6.413 c -0.012,-0.088 -0.054,-0.167 -0.127,-0.218 -0.066,-0.051 -0.133,-0.063 -0.205,-0.063 h -0.054 c -3.197,0.461 -6.486,0.899 -9.804,1.297 -0.091,0.012 -0.169,0.051 -0.217,0.127 -0.054,0.066 -0.079,0.156 -0.067,0.244 l 0.797,6.504 c 0,0.087 0.054,0.166 0.114,0.217 0.067,0.051 0.133,0.075 0.212,0.075 h 0.035 c 3.265,-0.422 6.565,-0.899 9.817,-1.4 0.169,-0.035 0.307,-0.192 0.271,-0.37 m 6.926,-1.171 c 0.013,0.091 0.06,0.181 0.127,0.232 0.066,0.051 0.127,0.064 0.205,0.064 h 0.066 c 2.221,-0.386 4.163,-0.745 5.919,-1.08 0.157,-0.024 0.283,-0.154 0.271,-0.32 -0.035,-2.133 -0.103,-4.254 -0.151,-6.374 0,-0.102 -0.054,-0.193 -0.132,-0.256 -0.048,-0.04 -0.139,-0.064 -0.206,-0.064 h -0.059 c -1.943,0.348 -4.091,0.706 -6.528,1.117 -0.182,0.027 -0.308,0.192 -0.285,0.361 z m 6.462,-39.212 0.012,0.332 c 0.048,1.131 0.114,2.286 0.126,2.826 0.012,0.027 0.012,0.039 0.025,0.051 l 0.905,4.628 c 0.024,0.154 0.163,0.268 0.319,0.268 0.024,0 0.037,0 0.067,-0.012 2.437,-0.437 4.869,-0.913 7.227,-1.399 0.091,-0.015 0.169,-0.067 0.223,-0.142 0.049,-0.079 0.061,-0.181 0.037,-0.271 l -1.991,-8.287 c -2.22,0.54 -4.549,1.08 -6.962,1.593 0,0.13 0.012,0.271 0.012,0.413 m 4.241,9.635 c -0.03,-0.154 -0.169,-0.268 -0.326,-0.268 h -0.06 c -0.941,0.177 -1.967,0.37 -3.149,0.603 -0.157,0.012 -0.272,0.177 -0.272,0.334 0.103,2.48 0.194,5.063 0.296,7.889 0,0.102 0.054,0.178 0.133,0.244 0.048,0.051 0.126,0.075 0.205,0.075 h 0.06 c 1.581,-0.295 2.992,-0.564 4.344,-0.82 0.103,-0.028 0.168,-0.079 0.229,-0.154 0.042,-0.066 0.066,-0.157 0.042,-0.244 z m 2.812,7.402 c 0.023,0.088 0.078,0.166 0.156,0.206 0.049,0.036 0.115,0.063 0.176,0.063 0.03,0 0.053,0 0.066,-0.012 2.594,-0.516 5.23,-1.068 7.849,-1.659 0.09,-0.012 0.157,-0.076 0.223,-0.154 0.036,-0.063 0.048,-0.166 0.024,-0.244 l -1.798,-7.569 c -0.042,-0.139 -0.168,-0.257 -0.325,-0.257 -0.025,0 -0.048,0 -0.073,0.016 -2.443,0.536 -4.977,1.052 -7.517,1.553 -0.194,0.039 -0.308,0.217 -0.272,0.398 z m 3.209,-10.998 c 0.055,0.154 0.169,0.256 0.338,0.256 0.012,0 0.037,0 0.06,-0.014 2.395,-0.489 4.833,-1.027 7.252,-1.594 0.085,-0.011 0.163,-0.075 0.218,-0.153 0.048,-0.076 0.06,-0.166 0.023,-0.257 l -1.037,-3.686 c 0,-0.015 -0.019,-0.027 -0.03,-0.054 -0.266,-0.615 -0.767,-1.823 -1.219,-3.005 l -0.024,-0.039 c -0.259,-0.631 -0.501,-1.234 -0.724,-1.759 -2.166,0.667 -4.494,1.322 -6.95,1.952 z m 10.19,-2.983 c 0.055,0.117 0.169,0.192 0.308,0.192 0.03,0 0.054,-0.011 0.09,-0.011 3.807,-1.002 7.56,-2.082 11.167,-3.186 0.104,-0.027 0.181,-0.105 0.218,-0.193 0.024,-0.078 0.024,-0.181 0,-0.271 l -3.946,-8.673 c -0.06,-0.127 -0.162,-0.193 -0.308,-0.193 -0.024,0 -0.048,0 -0.09,0.012 -0.127,0.039 -0.277,0.078 -0.41,0.117 -2.914,1.518 -6.486,2.969 -10.649,4.33 1.14,2.479 2.323,5.076 3.62,7.876 m -0.718,3.188 c -0.048,-0.117 -0.18,-0.193 -0.296,-0.193 h -0.078 c -1.435,0.347 -2.763,0.643 -4.049,0.938 -0.09,0.024 -0.162,0.075 -0.216,0.154 -0.048,0.075 -0.048,0.166 -0.037,0.256 l 1.798,7.542 c 0.055,0.169 0.181,0.256 0.321,0.256 h 0.09 c 1.683,-0.398 3.469,-0.808 5.617,-1.348 0.102,-0.024 0.18,-0.091 0.228,-0.178 0.037,-0.091 0.037,-0.193 0,-0.284 -1.218,-2.582 -2.341,-4.923 -3.378,-7.143 m 3.674,17.807 c 0.091,-0.012 0.169,-0.076 0.218,-0.141 0.042,-0.091 0.042,-0.179 0.029,-0.27 l -2.111,-7.426 c -0.035,-0.154 -0.181,-0.256 -0.32,-0.256 -0.024,0 -0.066,0 -0.09,0.012 -2.468,0.603 -5.05,1.194 -7.71,1.773 -0.103,0.024 -0.181,0.076 -0.218,0.154 -0.048,0.076 -0.06,0.166 -0.048,0.256 l 1.822,7.554 c 0.024,0.141 0.169,0.26 0.32,0.26 0.03,0 0.042,0 0.066,-0.013 2.697,-0.591 5.394,-1.233 8.042,-1.903 m -12.452,12.863 c 0,0.087 0.066,0.154 0.144,0.205 0.049,0.039 0.127,0.063 0.182,0.063 0.023,0 0.048,0 0.061,-0.012 2.853,-0.591 5.754,-1.246 8.651,-1.94 0.072,-0.014 0.162,-0.063 0.205,-0.142 0.048,-0.09 0.048,-0.168 0.048,-0.256 l -1.81,-7.529 c -0.042,-0.154 -0.169,-0.272 -0.32,-0.272 -0.029,0 -0.054,0.015 -0.09,0.027 -2.661,0.616 -5.46,1.219 -8.302,1.811 -0.193,0.039 -0.296,0.22 -0.271,0.398 z m -5.997,-9.137 c 0.036,0.168 0.169,0.282 0.332,0.282 0.024,0 0.054,0 0.054,-0.011 2.733,-0.528 5.448,-1.093 8.066,-1.659 0.079,-0.012 0.157,-0.063 0.205,-0.154 0.055,-0.063 0.055,-0.166 0.043,-0.257 l -1.816,-7.553 c -0.025,-0.157 -0.163,-0.244 -0.32,-0.244 h -0.066 c -2.54,0.54 -5.134,1.064 -7.717,1.553 -0.09,0.024 -0.168,0.079 -0.235,0.154 -0.035,0.063 -0.061,0.154 -0.035,0.244 z m -1.58,0.657 c 0.091,-0.015 0.169,-0.079 0.216,-0.142 0.055,-0.078 0.067,-0.169 0.055,-0.256 l -1.509,-7.659 c -0.036,-0.154 -0.15,-0.269 -0.319,-0.269 h -0.06 l -0.682,0.127 c -0.157,0.027 -0.272,0.169 -0.272,0.335 0.079,2.492 0.169,5.073 0.242,7.901 0,0.102 0.053,0.192 0.132,0.244 0.049,0.051 0.139,0.078 0.217,0.078 h 0.055 l 0.163,-0.027 c 0.591,-0.114 1.183,-0.23 1.762,-0.332 m -41.171,27.52 c -0.09,0.012 -0.175,0.063 -0.241,0.13 -0.054,0.076 -0.079,0.165 -0.067,0.256 l 0.374,2.878 c 0.079,0.643 0.145,1.131 0.205,1.62 0.067,0.513 0.127,1.026 0.217,1.72 0.067,0.555 0.134,0.977 0.182,1.387 l 0.043,0.193 c 0.048,0.438 0.102,0.875 0.186,1.454 0,0.178 0.156,0.296 0.338,0.296 h 0.024 c 3.752,-0.453 4.754,-0.682 8.38,-1.171 0.09,-0.024 0.163,-0.078 0.217,-0.141 0.067,-0.076 0.078,-0.166 0.067,-0.257 -0.158,-1.001 0.561,-1.581 0.447,-2.353 -0.013,-0.087 0.012,-0.178 0.078,-0.241 0.036,-0.078 0.127,-0.129 0.217,-0.142 2.853,-0.398 4.959,-0.823 7.776,-1.261 0.012,-0.012 0.037,-0.012 0.049,-0.012 0.169,0 0.296,0.115 0.331,0.284 l 1.183,2.362 c 0.012,0.168 0.17,0.271 0.338,0.271 h 0.037 c 3.685,-0.591 5.471,-0.899 9.109,-1.556 0.103,-0.024 0.169,-0.064 0.23,-0.139 0.042,-0.079 0.066,-0.169 0.054,-0.26 -0.115,-0.551 0.151,-0.974 0.066,-1.423 l 0.242,-0.899 c -0.013,-0.091 0,-0.181 0.054,-0.26 0.048,-0.075 0.126,-0.127 0.216,-0.138 2.891,-0.529 4.948,-1.069 7.693,-1.621 0.018,-0.012 0.043,-0.012 0.066,-0.012 0.157,0 0.296,0.115 0.332,0.269 l 1.285,2.338 c 0.042,0.142 0.169,0.272 0.338,0.272 0.012,0 0.025,0 0.061,-0.016 3.716,-0.757 4.718,-1.128 8.265,-1.924 0.09,-0.016 0.169,-0.067 0.205,-0.142 0.048,-0.079 0.06,-0.181 0.037,-0.257 l -0.718,-2.983 C -50.286,9.689 -50.401,9.24 -50.521,8.802 l -0.025,-0.114 c -0.114,-0.517 -0.26,-1.029 -0.41,-1.71 -0.157,-0.631 -0.26,-1.081 -0.374,-1.554 l -0.296,-1.261 c -0.036,-0.154 -0.163,-0.269 -0.331,-0.269 -0.013,0 -0.042,0 -0.079,0.012 -15.107,3.315 -30.618,5.964 -46.039,7.825 m 3.354,-2.672 c -0.114,0.09 -0.137,0.256 -0.078,0.386 0.067,0.114 0.169,0.193 0.314,0.193 0.012,0 0.024,0 0.037,-0.012 12.729,-1.647 25.544,-3.816 38.08,-6.453 0.145,-0.036 0.248,-0.154 0.272,-0.296 0.012,-0.138 -0.067,-0.28 -0.193,-0.347 -1.002,-0.473 -1.569,-0.769 -2.413,-1.194 l -0.658,-0.32 c -0.048,-0.027 -0.103,-0.038 -0.151,-0.038 -0.03,0 -0.054,0 -0.066,0.011 -10.679,2.148 -21.563,3.997 -32.325,5.436 -0.068,0.012 -0.133,0.051 -0.182,0.09 -1.068,1.029 -1.581,1.53 -2.637,2.544 m 1.093,-10.203 c 0.042,0.13 0.168,0.22 0.308,0.22 h 0.042 c 0.398,-0.038 0.808,-0.09 1.194,-0.129 l 0.706,-0.076 c 0.091,-0.015 0.169,-0.066 0.217,-0.129 0.066,-0.078 0.091,-0.154 0.079,-0.257 l -0.809,-6.567 c -0.011,-0.166 -0.157,-0.308 -0.319,-0.308 -0.019,0 -0.03,0 -0.043,0.013 l -0.355,0.039 c -0.93,0.09 -1.865,0.181 -2.818,0.283 -0.091,0.013 -0.181,0.064 -0.242,0.155 -0.054,0.075 -0.078,0.177 -0.042,0.28 0.658,2.081 1.364,4.268 2.082,6.476 m -2.583,-8.89 v 0 c 12.182,-1.194 24.133,-2.826 35.541,-4.883 0.17,-0.024 0.284,-0.166 0.273,-0.347 -0.068,-2.555 -0.133,-4.703 -0.206,-6.911 0,-0.103 -0.043,-0.193 -0.121,-0.257 -0.06,-0.038 -0.138,-0.066 -0.216,-0.066 h -0.049 c -11.976,2.133 -24.543,3.804 -37.394,4.971 -0.102,0.016 -0.192,0.067 -0.253,0.157 -0.042,0.076 -0.066,0.178 -0.03,0.281 0.621,2.03 1.304,4.19 2.111,6.811 0.049,0.142 0.163,0.244 0.344,0.244 m 35.144,-22.074 c -0.067,-0.052 -0.139,-0.076 -0.205,-0.076 -0.025,0 -0.055,0.012 -0.067,0.012 -5.496,0.962 -11.227,1.861 -17.061,2.657 -0.079,0.016 -0.158,0.04 -0.205,0.106 -0.707,0.821 -1.708,1.361 -2.8,1.541 -0.248,0.037 -0.519,0.064 -0.761,0.064 -0.953,0 -1.863,-0.283 -2.636,-0.808 -0.06,-0.039 -0.115,-0.067 -0.193,-0.067 h -0.036 c -5.291,0.643 -10.757,1.21 -16.23,1.672 -0.102,0 -0.192,0.063 -0.24,0.141 -0.055,0.091 -0.067,0.193 -0.043,0.283 0.646,2.157 1.339,4.459 2.058,6.848 0.042,0.127 0.18,0.217 0.349,0.217 h 0.012 c 13.08,-1.182 25.925,-2.889 38.147,-5.073 0.182,-0.04 0.285,-0.181 0.285,-0.359 -0.067,-2.006 -0.145,-4.139 -0.26,-6.915 0,-0.09 -0.036,-0.177 -0.114,-0.243 m 0.024,-2.519 c -0.127,-3.213 -0.272,-6.489 -0.41,-9.777 -5.395,1.104 -11.282,2.106 -17.575,2.992 0.489,2.79 0.971,5.578 1.46,8.365 0.054,0.296 0.066,0.618 0.054,0.926 0,0.102 0.036,0.205 0.115,0.256 0.066,0.064 0.145,0.091 0.217,0.091 h 0.066 c 5.322,-0.745 10.625,-1.593 15.789,-2.507 0.169,-0.024 0.284,-0.177 0.284,-0.346 m -41.298,5.384 c 0.055,0.142 0.17,0.244 0.351,0.244 5.061,-0.425 10.16,-0.938 15.161,-1.529 0.091,-0.012 0.182,-0.063 0.229,-0.154 0.067,-0.078 0.079,-0.18 0.042,-0.268 -0.066,-0.245 -0.12,-0.452 -0.144,-0.646 -0.435,-2.89 -0.875,-5.768 -1.297,-8.657 -5.448,0.627 -11.149,1.194 -17.063,1.643 0.864,3.008 1.745,6.064 2.721,9.367 m -2.937,-5.022 c -0.031,0 -0.055,0 -0.067,0.012 -0.169,0.024 -0.283,0.177 -0.271,0.358 l 0.326,3.418 c 0.023,0.182 0.162,0.308 0.355,0.308 l 0.658,-0.051 c 0.102,-0.012 0.205,-0.064 0.254,-0.142 0.066,-0.088 0.078,-0.19 0.053,-0.281 -0.331,-1.143 -0.657,-2.262 -1.001,-3.378 -0.024,-0.142 -0.169,-0.244 -0.307,-0.244 m 1.961,24.307 c 0.017,0.181 0.169,0.311 0.374,0.311 1.465,-0.118 3.034,-0.26 4.808,-0.414 0.09,-0.012 0.181,-0.075 0.24,-0.154 0.055,-0.09 0.08,-0.192 0.043,-0.283 -0.76,-2.413 -1.556,-5.01 -2.388,-7.695 -0.043,-0.142 -0.17,-0.233 -0.326,-0.233 h -0.025 c -1.055,0.091 -2.105,0.181 -3.161,0.272 -0.09,0 -0.181,0.039 -0.241,0.114 -0.055,0.067 -0.079,0.154 -0.067,0.245 z m 2.056,-10.175 c 0.103,0 0.205,-0.063 0.26,-0.142 0.048,-0.09 0.061,-0.193 0.036,-0.295 -0.82,-2.724 -1.581,-5.243 -2.31,-7.708 -0.042,-0.141 -0.169,-0.232 -0.32,-0.232 h -0.03 c -1.617,0.127 -3.071,0.245 -4.416,0.347 -0.193,0.012 -0.338,0.166 -0.32,0.347 l 0.423,7.876 c 0.011,0.075 0.047,0.166 0.114,0.229 0.066,0.055 0.138,0.079 0.228,0.079 h 0.013 c 1.931,-0.142 4,-0.296 6.322,-0.501 m -16.406,-7.439 c -0.179,0.012 -0.308,0.155 -0.308,0.332 l 0.103,7.891 c 0,0.103 0.039,0.194 0.102,0.245 0.063,0.063 0.142,0.087 0.245,0.087 2.66,-0.138 5.344,-0.295 7.939,-0.473 0.181,-0.012 0.308,-0.166 0.308,-0.347 l -0.435,-7.877 c 0,-0.09 -0.036,-0.181 -0.102,-0.232 -0.067,-0.063 -0.145,-0.09 -0.217,-0.09 h -0.031 c -2.515,0.168 -5.085,0.322 -7.604,0.464 m 1.453,-2.183 -0.437,-7.877 c 0,-0.078 -0.051,-0.142 -0.09,-0.193 -2.543,0.127 -5.128,0.256 -7.735,0.371 -0.039,0.039 -0.051,0.079 -0.051,0.141 l -0.039,0.257 v 0.051 l 0.102,7.632 c 0,0.079 0.039,0.169 0.103,0.233 0.063,0.063 0.141,0.102 0.244,0.102 h 0.013 c 2.479,-0.114 5.025,-0.229 7.555,-0.358 0.091,-0.013 0.182,-0.052 0.23,-0.119 0.066,-0.063 0.105,-0.153 0.105,-0.24 m 1.337,-0.079 c 0,0.09 0.036,0.166 0.103,0.232 0.063,0.052 0.138,0.087 0.244,0.087 2.53,-0.153 5.089,-0.319 7.592,-0.5 0.091,-0.012 0.182,-0.064 0.23,-0.127 0.066,-0.066 0.09,-0.153 0.078,-0.244 l -0.742,-7.838 c -0.019,-0.09 -0.054,-0.153 -0.108,-0.193 -2.552,0.179 -5.138,0.36 -7.759,0.502 -0.064,0.063 -0.075,0.129 -0.075,0.217 z m 9.918,20.353 c 0.091,-0.013 0.182,-0.052 0.23,-0.13 0.066,-0.064 0.102,-0.154 0.089,-0.229 l -0.771,-7.865 C -105.423,-17.87 -105.563,-18 -105.73,-18 h -0.038 c -2.671,0.205 -5.399,0.398 -8.108,0.552 -0.192,0 -0.335,0.169 -0.308,0.359 l 0.423,7.864 c 0,0.102 0.039,0.181 0.103,0.244 0.078,0.064 0.141,0.079 0.244,0.079 h 0.012 c 2.815,-0.169 5.669,-0.363 8.443,-0.579 m -12.643,10.817 c 0,0.09 0.038,0.169 0.088,0.232 0.067,0.063 0.142,0.091 0.26,0.091 2.901,-0.154 5.87,-0.335 8.784,-0.54 0.181,-0.012 0.326,-0.166 0.326,-0.347 l -0.44,-7.876 c 0,-0.091 -0.037,-0.181 -0.115,-0.232 -0.048,-0.064 -0.139,-0.091 -0.217,-0.091 h -0.013 c -2.763,0.193 -5.617,0.374 -8.467,0.528 -0.181,0 -0.323,0.154 -0.311,0.335 z m -6.59,-10.048 c 0,0.091 0.024,0.181 0.102,0.232 0.052,0.064 0.139,0.103 0.241,0.103 2.815,-0.115 5.642,-0.257 8.432,-0.411 0.193,0 0.319,-0.166 0.308,-0.347 l -0.425,-7.876 c -0.013,-0.103 -0.052,-0.181 -0.115,-0.232 -0.052,-0.051 -0.13,-0.09 -0.217,-0.09 h -0.028 c -2.697,0.156 -5.42,0.283 -8.093,0.386 -0.181,0.011 -0.311,0.154 -0.311,0.346 z m 4.648,-10.187 c 0.193,-0.016 0.323,-0.169 0.323,-0.347 l -0.102,-7.891 c 0,-0.088 -0.028,-0.178 -0.103,-0.242 -0.067,-0.066 -0.142,-0.09 -0.232,-0.09 v -0.335 l -0.025,0.335 c -1.851,0.09 -3.792,0.166 -5.757,0.244 -0.179,0.013 -0.309,0.127 -0.321,0.296 -0.335,2.543 -0.67,5.215 -1.016,7.928 -0.013,0.102 0.026,0.192 0.09,0.268 0.064,0.066 0.154,0.102 0.256,0.102 2.377,-0.075 4.703,-0.165 6.887,-0.268 m -6.166,-18.476 v -0.04 c -5.873,0.232 -11.873,0.372 -18.015,0.426 -0.024,0.035 -0.039,0.102 -0.039,0.165 l 0.106,9.264 c 0,0.181 0.153,0.335 0.331,0.335 5.385,-0.015 10.821,-0.103 16.166,-0.283 0.154,-0.013 0.281,-0.142 0.307,-0.296 0.423,-3.496 0.809,-6.631 1.144,-9.571 m -2.352,29.025 c 0.05,0.063 0.141,0.102 0.258,0.102 l 0.718,-0.012 c 0.399,-0.015 0.813,-0.027 1.223,-0.039 0.192,0 0.319,-0.154 0.319,-0.347 l -0.102,-7.891 c 0,-0.088 -0.025,-0.178 -0.103,-0.242 -0.064,-0.066 -0.142,-0.09 -0.23,-0.09 v -0.323 l -0.014,0.323 -0.784,0.024 c -0.166,0 -0.282,0.13 -0.309,0.296 -0.386,2.878 -0.732,5.475 -1.064,7.928 -0.015,0.102 0.011,0.192 0.088,0.271 m -43.285,22.175 c -0.181,0 -0.323,0.141 -0.335,0.335 l -0.41,9.315 c 0,0.193 0.154,0.346 0.331,0.346 3.765,0.167 4.384,0.221 8.058,0.308 0.09,0 0.181,-0.036 0.244,-0.103 0.051,-0.063 0.102,-0.141 0.102,-0.229 l 1.234,-2.392 c 0,-0.088 0.052,-0.166 0.103,-0.229 0.079,-0.066 0.13,-0.102 0.232,-0.102 l 0.012,0.011 c 2.89,0.064 5.038,0.103 7.889,0.103 0.181,0 0.335,0.142 0.335,0.334 l 0.769,2.39 c 0,0.181 0.157,0.335 0.335,0.335 h 0.847 c 3.098,0 4.908,-0.027 8.416,-0.091 0.09,0 0.169,-0.039 0.245,-0.102 0.05,-0.066 0.09,-0.142 0.09,-0.233 -0.012,-0.615 0.461,-1.079 0.461,-1.528 l 0.257,-0.86 c -0.013,-0.079 0.028,-0.167 0.09,-0.233 0.067,-0.063 0.143,-0.102 0.245,-0.102 2.917,-0.064 5.062,-0.154 7.863,-0.257 h 0.013 c 0.169,0 0.322,0.142 0.348,0.323 l 0.54,0.86 c 0.012,0.461 0.68,0.926 0.705,1.529 0,0.178 0.154,0.32 0.348,0.32 h 0.014 c 3.737,-0.154 4.407,-0.244 8.094,-0.462 0.09,-0.012 0.165,-0.051 0.232,-0.117 0.063,-0.064 0.087,-0.151 0.087,-0.242 -0.051,-0.606 -0.087,-1.067 -0.114,-1.53 -0.04,-0.463 -0.063,-0.925 -0.103,-1.528 -0.051,-0.682 -0.079,-1.183 -0.102,-1.696 l -0.013,-0.039 c -0.027,-0.489 -0.051,-0.977 -0.102,-1.62 -0.039,-0.513 -0.067,-0.91 -0.09,-1.297 l -0.013,-0.283 c -0.027,-0.399 -0.066,-0.797 -0.078,-1.31 -0.024,-0.181 -0.182,-0.323 -0.359,-0.323 h -0.015 c -9.186,0.516 -18.488,0.785 -27.674,0.785 -6.335,0 -12.772,-0.127 -19.131,-0.386 m 3.788,-2.106 c -0.114,0.091 -0.166,0.232 -0.126,0.371 0.036,0.141 0.165,0.244 0.308,0.244 5.034,0.143 10.135,0.232 15.161,0.232 7.798,0 15.701,-0.192 23.527,-0.551 0.14,-0.013 0.267,-0.118 0.307,-0.245 0.027,-0.141 -0.013,-0.295 -0.13,-0.374 -1.104,-0.784 -1.668,-1.194 -2.775,-1.991 -0.064,-0.039 -0.127,-0.063 -0.205,-0.063 V 9.007 l -0.013,0.335 c -6.669,0.268 -13.414,0.398 -20.057,0.398 -4.238,0 -8.53,-0.051 -12.772,-0.154 -0.063,0 -0.154,0.013 -0.205,0.052 -1.246,0.871 -1.825,1.27 -3.02,2.081 m 13.979,-17.424 c -0.063,0.052 -0.102,0.143 -0.102,0.232 v 7.12 c 0,0.178 0.154,0.319 0.335,0.319 2.222,0.025 4.072,0.04 5.806,0.04 1.364,0 2.739,0 4.1,-0.015 0.181,0 0.335,-0.154 0.335,-0.332 v -7.056 c 0,-0.087 -0.04,-0.178 -0.103,-0.229 -0.066,-0.066 -0.153,-0.103 -0.244,-0.103 h -0.965 c -2.775,0 -5.693,-0.027 -8.929,-0.078 v -0.335 0.335 c -0.091,0 -0.181,0.039 -0.233,0.102 m 6.039,9.728 c -5.522,0 -11.088,-0.089 -16.536,-0.259 l -0.025,-0.331 v 0.331 c -0.09,0 -0.192,0.04 -0.244,0.118 -0.064,0.076 -0.102,0.178 -0.078,0.268 l 0.156,1.068 c 0.127,0.86 0.245,1.735 0.398,2.594 0.013,0.167 0.154,0.284 0.308,0.284 5.228,0.166 10.537,0.257 15.753,0.257 5.227,0 10.549,-0.091 15.791,-0.257 0.166,0 0.308,-0.13 0.321,-0.284 0.13,-0.808 0.244,-1.604 0.359,-2.401 l 0.181,-1.248 c 0.011,-0.103 -0.013,-0.194 -0.078,-0.269 -0.065,-0.079 -0.155,-0.114 -0.27,-0.114 -5.317,0.165 -10.729,0.243 -16.036,0.243 M -165.797,-6.04 c -0.066,0.079 -0.09,0.17 -0.078,0.272 0.334,2.298 0.669,4.664 1.041,7.207 0.027,0.168 0.165,0.283 0.322,0.283 1.195,0.051 2.377,0.079 3.493,0.103 0.091,0 0.169,-0.024 0.233,-0.091 0.063,-0.063 0.102,-0.154 0.102,-0.244 v -7.143 c 0,-0.193 -0.142,-0.32 -0.323,-0.332 -1.809,-0.066 -3.224,-0.118 -4.521,-0.169 l -0.013,-0.335 v 0.335 c -0.102,0 -0.181,0.039 -0.256,0.114 m 29.693,7.582 c 0,0.089 0.039,0.18 0.102,0.231 0.063,0.064 0.153,0.103 0.244,0.103 1.722,-0.051 3.265,-0.075 4.676,-0.126 0.157,-0.016 0.311,-0.13 0.335,-0.284 0.335,-2.404 0.67,-4.755 0.977,-7.005 0.028,-0.102 -0.012,-0.19 -0.079,-0.268 -0.063,-0.076 -0.153,-0.114 -0.255,-0.114 v -0.335 0.335 c -1.723,0.051 -3.573,0.075 -5.666,0.114 -0.181,0 -0.334,0.154 -0.334,0.347 z M -166.246,-8.48 c 0.012,0.154 0.138,0.272 0.308,0.284 7.131,0.296 14.364,0.461 21.52,0.461 4.884,0 9.815,-0.075 14.711,-0.217 0.154,-0.012 0.296,-0.13 0.323,-0.296 0.32,-2.377 0.643,-4.753 0.95,-7.067 0.012,-0.102 -0.012,-0.205 -0.09,-0.269 -0.063,-0.078 -0.142,-0.117 -0.245,-0.117 -5.227,0.154 -10.482,0.232 -15.649,0.232 -7.452,0 -15.008,-0.154 -22.459,-0.477 l -0.012,-0.346 v 0.346 c -0.102,0 -0.193,0.04 -0.259,0.103 -0.064,0.078 -0.088,0.181 -0.076,0.272 0.32,2.388 0.643,4.778 0.978,7.091 m -1.029,-9.508 c 7.569,0.335 15.252,0.501 22.857,0.501 5.306,0 10.69,-0.075 16.009,-0.245 0.168,-0.012 0.295,-0.126 0.322,-0.295 0.335,-2.543 0.631,-4.857 0.899,-7.077 0.027,-0.091 0,-0.193 -0.076,-0.26 -0.065,-0.075 -0.156,-0.115 -0.258,-0.115 -5.382,0.182 -10.896,0.269 -16.356,0.269 -0.115,0 -0.229,0.066 -0.284,0.169 -0.796,1.502 -2.377,2.429 -4.124,2.429 -1.774,0 -3.366,-0.95 -4.162,-2.48 -0.052,-0.103 -0.167,-0.181 -0.296,-0.181 -5.089,-0.076 -10.253,-0.245 -15.405,-0.462 l -0.013,-0.347 v 0.347 c -0.09,0 -0.193,0.024 -0.271,0.103 -0.064,0.063 -0.088,0.166 -0.076,0.268 0.284,2.212 0.592,4.525 0.926,7.08 0.024,0.169 0.154,0.284 0.308,0.296 m -2.685,-19.325 c 0.32,2.839 0.694,5.859 1.117,9.226 0.027,0.168 0.141,0.283 0.322,0.295 5.035,0.245 10.175,0.413 15.264,0.489 0.09,0 0.166,-0.025 0.232,-0.091 0.064,-0.063 0.103,-0.142 0.103,-0.229 l 0.127,-9.201 c 0,-0.063 -0.025,-0.114 -0.039,-0.165 -5.819,-0.04 -11.551,-0.17 -17.126,-0.362 0,0.015 -0.015,0.015 0,0.038 m -0.232,6.154 c -0.079,-0.359 -0.141,-0.717 -0.256,-1.27 -0.039,-0.156 -0.193,-0.259 -0.347,-0.259 -0.013,0 -0.027,0 -0.039,0.015 -0.182,0.025 -0.296,0.178 -0.284,0.359 l 0.232,2.61 c 0.012,0.165 0.166,0.308 0.347,0.308 h 0.039 0.064 c 0.051,0 0.078,0.011 0.165,0.011 h 0.052 c 0.105,-0.011 0.208,-0.063 0.272,-0.141 0.051,-0.076 0.075,-0.178 0.051,-0.269 -0.13,-0.603 -0.205,-0.977 -0.296,-1.364 m -0.335,22.205 c 0,0.19 0.154,0.333 0.323,0.345 0.718,0.039 1.427,0.066 2.133,0.09 l 0.244,0.027 c 0.178,0 0.331,-0.154 0.331,-0.347 0,-0.027 0,-0.039 -0.011,-0.078 -0.32,-2.351 -0.667,-4.948 -1.065,-7.916 -0.039,-0.154 -0.169,-0.281 -0.323,-0.281 l -1.27,-0.063 h -0.027 c -0.079,0 -0.166,0.025 -0.218,0.088 -0.077,0.066 -0.117,0.153 -0.117,0.244 z m 1.298,-9.961 c 0.181,0 0.334,-0.153 0.334,-0.331 0,-0.012 -0.012,-0.039 -0.012,-0.079 -0.335,-2.503 -0.67,-5.101 -1.016,-7.915 -0.024,-0.166 -0.154,-0.281 -0.32,-0.296 -1.916,-0.087 -3.482,-0.178 -4.959,-0.268 h -0.013 c -0.09,0 -0.168,0.039 -0.232,0.09 -0.078,0.064 -0.103,0.154 -0.103,0.245 v 7.915 c 0,0.166 0.115,0.308 0.308,0.32 1.798,0.114 3.753,0.217 6.013,0.319 m -15.612,-9.571 h -0.024 c -0.078,0 -0.154,0.028 -0.219,0.091 -0.076,0.063 -0.116,0.142 -0.116,0.232 l -0.32,7.888 c 0,0.181 0.115,0.335 0.296,0.347 2.646,0.205 5.318,0.41 7.992,0.579 0.075,0 0.165,-0.039 0.216,-0.102 0.079,-0.067 0.119,-0.157 0.119,-0.244 v -7.904 c 0,-0.166 -0.143,-0.32 -0.311,-0.335 -2.568,-0.153 -5.125,-0.344 -7.633,-0.552 m 3.741,-9.39 c -2.661,-0.142 -5.282,-0.308 -7.837,-0.501 l -0.619,7.399 c -0.024,0.182 0.103,0.335 0.296,0.359 2.441,0.221 4.959,0.426 7.505,0.604 0.088,0 0.178,-0.024 0.23,-0.075 0.066,-0.064 0.117,-0.154 0.117,-0.245 z m 1.336,8.018 c 2.532,0.166 5.062,0.319 7.566,0.462 0.078,0 0.169,-0.028 0.232,-0.091 0.063,-0.063 0.118,-0.154 0.118,-0.244 v -7.696 c -2.673,-0.102 -5.309,-0.232 -7.904,-0.374 l -0.319,7.593 c -0.015,0.169 0.127,0.323 0.307,0.35 m 7.566,21.134 c 0.078,0 0.169,-0.025 0.232,-0.091 0.063,-0.051 0.118,-0.139 0.118,-0.229 v -7.903 c 0,-0.178 -0.157,-0.332 -0.335,-0.332 -2.673,-0.157 -5.384,-0.323 -8.069,-0.516 h -0.013 c -0.09,0 -0.168,0.039 -0.232,0.079 -0.063,0.063 -0.114,0.154 -0.114,0.243 l -0.323,7.877 c -0.012,0.19 0.129,0.347 0.323,0.347 2.76,0.205 5.587,0.383 8.413,0.525 m -13.876,9.406 c 2.905,0.244 5.885,0.461 8.842,0.654 0.075,0 0.165,-0.039 0.216,-0.102 0.079,-0.064 0.119,-0.154 0.119,-0.245 v -7.9 c 0,-0.181 -0.143,-0.323 -0.311,-0.335 -2.839,-0.181 -5.678,-0.398 -8.492,-0.615 h -0.012 c -0.091,0 -0.169,0.024 -0.232,0.075 -0.079,0.063 -0.103,0.142 -0.103,0.232 l -0.348,7.889 c 0,0.181 0.143,0.334 0.321,0.347 m -4.893,-10.782 c 2.736,0.26 5.535,0.504 8.362,0.709 0.078,0 0.157,-0.027 0.22,-0.079 0.075,-0.063 0.103,-0.154 0.103,-0.243 l 0.335,-7.877 c 0.011,-0.178 -0.13,-0.335 -0.311,-0.347 -2.67,-0.205 -5.37,-0.422 -8.003,-0.667 h -0.027 c -0.076,0 -0.154,0.024 -0.218,0.076 -0.063,0.051 -0.102,0.142 -0.114,0.232 l -0.658,7.852 c -0.024,0.166 0.13,0.344 0.311,0.344 m 3.764,-9.994 c 0.088,0 0.166,-0.039 0.23,-0.09 0.066,-0.064 0.102,-0.142 0.117,-0.245 l 0.32,-7.876 c 0,-0.181 -0.13,-0.322 -0.307,-0.346 -1.506,-0.116 -3.099,-0.272 -5.011,-0.45 h -0.04 c -0.141,0 -0.283,0.091 -0.322,0.245 -0.769,2.632 -1.541,5.215 -2.275,7.682 -0.024,0.091 -0.012,0.205 0.039,0.284 0.067,0.075 0.154,0.139 0.245,0.154 2.468,0.244 4.754,0.449 7.004,0.642 m -31.429,-10.458 c -0.039,-0.103 -0.127,-0.181 -0.244,-0.193 -5.228,-0.824 -10.408,-1.723 -15.379,-2.7 -0.027,0 -0.039,-0.013 -0.067,-0.013 -0.075,0 -0.154,0.04 -0.205,0.076 -0.09,0.067 -0.126,0.157 -0.126,0.259 -0.091,2.327 -0.169,4.704 -0.244,6.912 0,0.169 0.114,0.308 0.28,0.335 12.208,2.416 25.095,4.343 38.316,5.716 h 0.025 c 0.142,0 0.271,-0.088 0.322,-0.229 0.746,-2.456 1.4,-4.679 2.018,-6.797 0.037,-0.09 0.013,-0.193 -0.039,-0.283 -0.051,-0.078 -0.142,-0.142 -0.232,-0.154 -5.523,-0.54 -11.074,-1.198 -16.47,-1.927 h -0.04 c -0.102,0 -0.193,0.035 -0.244,0.102 -0.875,0.95 -2.145,1.49 -3.457,1.49 -0.244,0 -0.489,-0.012 -0.745,-0.051 -1.514,-0.256 -2.815,-1.21 -3.469,-2.543 m 1.08,-10.793 c -5.937,-0.824 -11.526,-1.762 -16.679,-2.776 -0.102,2.441 -0.205,5.101 -0.32,8.236 -0.011,0.165 0.103,0.307 0.269,0.335 4.856,0.962 9.882,1.836 14.905,2.633 0.012,0 0.027,0.012 0.039,0.012 0.166,0 0.307,-0.115 0.347,-0.307 l 0.102,-0.619 c 0.45,-2.504 0.887,-5.01 1.337,-7.514 m 7.774,9.737 c 0.051,0.066 0.141,0.118 0.232,0.129 5.255,0.707 10.651,1.337 16.045,1.877 h 0.027 c 0.154,0 0.283,-0.102 0.323,-0.244 0.911,-3.123 1.719,-5.961 2.491,-8.649 -6.219,-0.474 -12.208,-1.052 -17.924,-1.707 -0.425,2.787 -0.835,5.562 -1.258,8.337 -0.015,0.091 0.012,0.181 0.064,0.257 m 19.107,-2.645 c -0.157,0 -0.296,0.114 -0.335,0.268 -0.13,0.54 -0.194,0.914 -0.272,1.261 -0.076,0.398 -0.154,0.757 -0.295,1.36 -0.012,0.091 0,0.205 0.078,0.284 0.052,0.076 0.141,0.13 0.244,0.13 h 0.064 c 0.063,0 0.117,0 0.181,-0.015 h 0.051 0.051 c 0.178,0 0.308,-0.142 0.335,-0.308 l 0.23,-2.609 c 0.014,-0.178 -0.116,-0.332 -0.281,-0.359 -0.015,-0.012 -0.04,-0.012 -0.051,-0.012 m -6.836,23.384 c 0.064,0.09 0.139,0.141 0.241,0.154 1.632,0.166 2.995,0.308 4.32,0.437 0.075,0 0.154,-0.039 0.217,-0.078 0.063,-0.064 0.103,-0.142 0.115,-0.229 l 0.657,-7.852 c 0.012,-0.182 -0.129,-0.335 -0.31,-0.359 -0.86,-0.079 -1.72,-0.166 -2.567,-0.257 h -0.055 c -0.138,0 -0.268,0.091 -0.319,0.229 -0.875,2.878 -1.633,5.385 -2.338,7.672 -0.039,0.09 -0.016,0.193 0.039,0.283 m -1.683,0.154 h 0.024 c 0.142,0 0.284,-0.102 0.323,-0.244 0.706,-2.275 1.4,-4.549 2.093,-6.773 0.012,-0.087 0.012,-0.205 -0.051,-0.28 -0.052,-0.091 -0.142,-0.142 -0.245,-0.142 -12.926,-1.364 -25.556,-3.252 -37.544,-5.617 h -0.063 c -0.066,0 -0.142,0.027 -0.22,0.066 -0.064,0.064 -0.103,0.166 -0.115,0.257 -0.052,1.759 -0.103,3.559 -0.141,5.294 l -0.04,1.632 c -0.012,0.153 0.103,0.307 0.259,0.335 11.421,2.259 23.436,4.096 35.72,5.472 m -35.901,6.95 c -0.012,-0.012 -0.038,-0.012 -0.051,-0.012 -0.078,0 -0.154,0.027 -0.22,0.078 -0.064,0.064 -0.115,0.154 -0.115,0.257 l -0.012,1.08 c -0.027,0.627 -0.039,1.258 -0.051,1.873 0,0.169 0.114,0.311 0.269,0.35 10.253,1.976 20.711,3.659 31.083,4.983 0.023,0.012 0.035,0.012 0.051,0.012 0.141,0 0.28,-0.09 0.319,-0.229 0.205,-0.642 0.41,-1.273 0.618,-1.916 l 0.41,-1.257 c 0.04,-0.103 0.013,-0.205 -0.038,-0.284 -0.051,-0.09 -0.127,-0.154 -0.23,-0.154 -10.974,-1.221 -21.755,-2.826 -32.033,-4.781 m 22.459,-6.232 c 0.015,-0.088 -0.013,-0.178 -0.064,-0.256 -0.063,-0.064 -0.141,-0.103 -0.232,-0.127 -3.249,-0.465 -6.525,-0.966 -9.764,-1.506 h -0.064 c -0.063,0 -0.13,0.028 -0.193,0.067 -0.078,0.051 -0.114,0.138 -0.129,0.217 l -1.195,7.285 c -0.024,0.09 0.015,0.181 0.051,0.256 0.052,0.079 0.13,0.118 0.22,0.143 3.237,0.527 6.525,1.016 9.804,1.465 h 0.025 c 0.168,0 0.322,-0.118 0.346,-0.283 z m -22.522,4.114 c 1.077,0.205 2.236,0.423 3.584,0.667 h 0.051 c 0.063,0 0.142,-0.012 0.193,-0.051 0.076,-0.052 0.13,-0.142 0.141,-0.233 l 1.208,-7.309 c 0.012,-0.181 -0.103,-0.362 -0.284,-0.386 -1.656,-0.307 -3.146,-0.591 -4.597,-0.887 h -0.066 c -0.064,0 -0.142,0.025 -0.205,0.079 -0.076,0.051 -0.116,0.154 -0.116,0.256 -0.066,2.35 -0.13,4.817 -0.181,7.53 0,0.166 0.115,0.307 0.272,0.334 m 35.487,-2.416 c 0.024,-0.102 0.012,-0.205 -0.051,-0.296 -0.052,-0.078 -0.142,-0.141 -0.233,-0.141 -1.616,-0.181 -3.366,-0.387 -5.357,-0.643 h -0.039 c -0.166,0 -0.308,0.114 -0.332,0.284 l -1.197,7.245 c -0.012,0.091 0.015,0.166 0.066,0.257 0.063,0.067 0.142,0.102 0.229,0.13 1.454,0.178 2.905,0.334 4.293,0.488 0.027,0 0.027,0.013 0.038,0.013 0.154,0 0.27,-0.103 0.335,-0.245 0.797,-2.492 1.527,-4.817 2.248,-7.092 M -243.905,4.28 h -0.078 c -0.154,0 -0.281,0.103 -0.332,0.257 l -0.607,2.853 c -0.126,0.589 -0.229,1.053 -0.331,1.515 l -0.028,0.141 c -0.102,0.474 -0.205,0.978 -0.346,1.633 l -0.284,1.258 c -0.115,0.527 -0.23,1.028 -0.371,1.722 -0.012,0.09 0,0.181 0.039,0.256 0.051,0.079 0.127,0.13 0.217,0.142 3.623,0.745 4.628,1.092 8.29,1.761 0.024,0.013 0.036,0.013 0.064,0.013 0.165,0 0.295,-0.115 0.335,-0.272 0.102,-0.564 0.575,-1.001 0.653,-1.424 l 0.592,-0.926 c 0.024,-0.166 0.166,-0.268 0.32,-0.268 h 0.063 c 2.866,0.537 5.334,1.025 8.121,1.475 0.09,0.027 0.169,0.066 0.22,0.142 0.039,0.066 0.063,0.153 0.039,0.244 l 0.19,0.899 c -0.075,0.438 0.284,0.875 0.193,1.454 -0.024,0.088 0,0.178 0.051,0.256 0.052,0.076 0.13,0.115 0.221,0.127 3.634,0.591 4.687,0.863 8.377,1.387 h 0.039 c 0.166,0 0.307,-0.126 0.331,-0.268 l 1.132,-2.377 c 0.027,-0.165 0.169,-0.283 0.335,-0.283 h 0.039 c 2.878,0.413 5.369,0.784 8.184,1.119 0.09,0.012 0.166,0.063 0.217,0.127 0.066,0.078 0.079,0.168 0.066,0.259 l 0.462,2.362 c -0.012,0.09 0.027,0.181 0.078,0.244 0.052,0.079 0.14,0.115 0.218,0.13 3.753,0.45 4.817,0.655 8.44,1.001 0,0.012 0.015,0.012 0.027,0.012 0.182,0 0.32,-0.126 0.335,-0.307 l 0.332,-3.032 c 0.066,-0.669 0.117,-1.182 0.168,-1.683 0.052,-0.5 0.103,-1.001 0.167,-1.671 l 0.322,-2.878 c 0,-0.091 -0.038,-0.181 -0.09,-0.256 -0.039,-0.064 -0.115,-0.118 -0.205,-0.118 -15.445,-1.605 -30.992,-3.97 -46.205,-7.026 m 4.072,-1.478 c -0.126,0.052 -0.205,0.193 -0.193,0.335 0.015,0.154 0.13,0.268 0.272,0.296 12.564,2.413 25.402,4.368 38.187,5.807 h 0.036 c 0.18,0 0.334,-0.142 0.334,-0.335 0,-0.091 -0.039,-0.181 -0.102,-0.245 -0.962,-0.938 -1.439,-1.426 -2.389,-2.389 -0.063,-0.063 -0.142,-0.091 -0.22,-0.103 C -214.674,4.884 -225.57,3.2 -236.285,1.194 h -0.078 c -0.052,0 -0.091,0 -0.142,0.027 l -0.411,0.205 c -1.08,0.516 -1.722,0.812 -2.917,1.376 m 3.548,-43.801 -0.015,0.32 c -0.166,0 -0.32,0.142 -0.32,0.323 l -0.217,2.606 c -0.027,0.181 0.102,0.335 0.269,0.362 0.051,0 0.089,0.013 0.129,0.024 0.051,0.013 0.09,0.028 0.193,0.04 0.024,0.011 0.037,0.011 0.064,0.011 0.178,0 0.334,-0.165 0.334,-0.346 v -0.039 c -0.027,-0.592 -0.051,-0.975 -0.066,-1.361 0,-0.359 -0.012,-0.733 -0.051,-1.297 -0.012,-0.169 -0.154,-0.311 -0.32,-0.323 z m -16.935,1.874 c 0.039,-0.178 -0.064,-0.359 -0.244,-0.398 -0.399,-0.103 -0.797,-0.206 -1.195,-0.32 l -0.631,-0.154 c -0.023,-0.012 -0.051,-0.012 -0.09,-0.012 -0.115,0 -0.245,0.075 -0.296,0.19 -1.143,2.455 -2.247,4.833 -3.327,7.083 -0.051,0.102 -0.051,0.205 0,0.293 0.04,0.089 0.129,0.153 0.22,0.18 0.975,0.257 2.145,0.579 3.351,0.899 0.04,0 0.052,0.015 0.091,0.015 0.063,0 0.13,-0.027 0.169,-0.053 0.075,-0.052 0.139,-0.128 0.154,-0.206 z m -0.489,7.852 c -0.051,0.181 0.063,0.359 0.232,0.411 2.571,0.642 5.114,1.26 7.566,1.824 h 0.09 c 0.067,0 0.13,-0.012 0.181,-0.051 0.079,-0.051 0.13,-0.13 0.154,-0.217 l 1.479,-7.62 c 0.039,-0.181 -0.064,-0.347 -0.245,-0.387 -2.455,-0.563 -4.896,-1.13 -7.261,-1.722 -0.024,0 -0.063,-0.012 -0.087,-0.012 -0.051,0 -0.118,0.027 -0.17,0.051 -0.075,0.052 -0.126,0.118 -0.153,0.206 z m -3.071,-9.445 c 0.142,0 0.257,-0.063 0.308,-0.193 1.312,-2.799 2.507,-5.381 3.638,-7.873 -4.383,-1.403 -8.121,-2.893 -11.167,-4.447 -0.142,0 -0.245,0.076 -0.308,0.193 l -3.931,8.673 c -0.039,0.088 -0.039,0.178 0,0.269 0.052,0.09 0.115,0.154 0.205,0.193 3.623,1.104 7.376,2.172 11.18,3.173 0.024,0.012 0.063,0.012 0.075,0.012 m 2.093,-1.219 c -0.035,0.076 -0.035,0.193 0,0.281 0.04,0.09 0.119,0.154 0.221,0.181 2.248,0.564 4.561,1.143 6.823,1.671 0.025,0.012 0.052,0.012 0.076,0.012 0.154,0 0.295,-0.103 0.335,-0.256 l 1.592,-6.67 c -2.132,-0.552 -4.151,-1.132 -6.063,-1.722 -0.901,1.966 -1.877,4.099 -2.984,6.503 m 8.764,2.185 c -0.024,0.089 -0.012,0.18 0.027,0.256 0.063,0.078 0.142,0.129 0.217,0.154 2.456,0.552 4.896,1.092 7.261,1.581 h 0.064 c 0.063,0 0.129,-0.013 0.193,-0.052 0.063,-0.051 0.129,-0.129 0.141,-0.217 l 1.285,-6.606 c -2.661,-0.564 -5.203,-1.144 -7.607,-1.747 z m 9.895,4.186 c -2.173,-0.434 -4.278,-0.872 -6.257,-1.309 -0.027,0 -0.051,-0.012 -0.078,-0.012 -0.064,0 -0.127,0.012 -0.181,0.052 -0.076,0.051 -0.127,0.141 -0.14,0.216 l -1.489,7.633 c -0.055,0.181 0.063,0.346 0.241,0.386 2.404,0.54 4.923,1.064 7.493,1.593 h 0.076 c 0.063,0 0.141,-0.025 0.193,-0.064 0.078,-0.066 0.142,-0.154 0.142,-0.257 0.09,-2.814 0.18,-5.396 0.268,-7.891 0,-0.166 -0.115,-0.32 -0.268,-0.347 m -4.305,18.079 c 1.067,0.232 2.196,0.476 3.583,0.759 h 0.066 c 0.076,0 0.154,-0.026 0.218,-0.078 0.078,-0.063 0.117,-0.141 0.117,-0.256 0.076,-2.404 0.154,-4.986 0.242,-7.888 0,-0.17 -0.115,-0.311 -0.268,-0.347 -0.785,-0.158 -1.555,-0.311 -2.338,-0.477 h -0.067 c -0.063,0 -0.115,0.012 -0.178,0.051 -0.079,0.052 -0.13,0.13 -0.142,0.221 l -1.502,7.632 c -0.027,0.178 0.088,0.359 0.269,0.383 m -1.979,-0.41 h 0.078 c 0.064,0 0.127,-0.013 0.178,-0.052 0.079,-0.051 0.13,-0.13 0.142,-0.217 l 1.505,-7.632 c 0.024,-0.181 -0.078,-0.35 -0.272,-0.398 -2.581,-0.555 -5.176,-1.146 -7.722,-1.75 -0.039,0 -0.051,-0.012 -0.09,-0.012 -0.139,0 -0.28,0.115 -0.32,0.257 l -1.813,7.529 c -0.024,0.193 0.079,0.359 0.257,0.41 2.66,0.642 5.372,1.273 8.057,1.865 m -15.816,6.488 c 2.736,0.745 5.563,1.451 8.365,2.133 0.024,0.011 0.051,0.011 0.075,0.011 0.067,0 0.13,-0.011 0.181,-0.051 0.075,-0.051 0.127,-0.126 0.154,-0.217 l 1.478,-7.608 c 0.039,-0.178 -0.063,-0.359 -0.244,-0.398 -2.7,-0.642 -5.409,-1.321 -8.042,-2.003 -0.027,-0.012 -0.067,-0.012 -0.091,-0.012 -0.066,0 -0.118,0.012 -0.181,0.036 -0.075,0.052 -0.127,0.13 -0.154,0.221 l -1.785,7.49 c -0.04,0.181 0.063,0.347 0.244,0.398 m -2.416,-11.089 c 0.027,0.066 0.114,0.13 0.193,0.142 2.543,0.706 5.243,1.427 8.03,2.108 0.027,0.013 0.051,0.013 0.078,0.013 0.063,0 0.115,-0.013 0.179,-0.052 0.078,-0.039 0.129,-0.117 0.153,-0.205 l 1.801,-7.517 c 0.036,-0.181 -0.078,-0.359 -0.259,-0.41 -2.531,-0.619 -5.114,-1.273 -7.708,-1.979 h -0.09 c -0.142,0 -0.269,0.087 -0.32,0.244 l -2.096,7.388 c -0.024,0.087 -0.013,0.178 0.039,0.268 m -2.815,-0.835 c 0.027,0.09 0.103,0.153 0.205,0.181 l 0.863,0.256 c 0.024,0 0.063,0.012 0.09,0.012 0.064,0 0.115,-0.012 0.166,-0.051 0.079,-0.04 0.142,-0.115 0.166,-0.19 l 1.403,-4.962 c 0.051,-0.154 -0.051,-0.332 -0.208,-0.399 -0.052,-0.012 -0.076,-0.024 -0.115,-0.024 -0.127,0 -0.256,0.075 -0.308,0.194 -0.694,1.438 -1.439,2.98 -2.262,4.702 -0.051,0.088 -0.051,0.193 0,0.281 m -25.49,16.178 c -0.027,-0.012 -0.067,-0.028 -0.102,-0.028 -0.13,0 -0.26,0.079 -0.296,0.193 l -4.253,8.507 c -0.04,0.09 -0.052,0.178 -0.012,0.284 0.035,0.087 0.114,0.154 0.205,0.19 1.617,0.488 2.362,0.488 4.356,1.092 0.024,0.015 0.063,0.015 0.102,0.015 0.142,0 0.268,-0.091 0.32,-0.233 l 1.427,-1.849 c 0.039,-0.141 0.181,-0.232 0.308,-0.232 0.039,0 0.063,0 0.102,0.012 2.79,0.835 5.59,1.647 8.29,2.392 0.087,0.036 0.153,0.087 0.205,0.166 0.039,0.079 0.051,0.166 0.039,0.245 l 0.256,2.696 c -0.015,0.079 0,0.169 0.036,0.26 0.052,0.063 0.118,0.127 0.209,0.153 3.622,1.002 4.494,1.081 8.014,1.992 0.04,0 0.067,0.011 0.079,0.011 0.153,0 0.295,-0.102 0.335,-0.256 l 0.784,-2.956 c 0.166,-0.655 0.28,-1.144 0.41,-1.632 0.127,-0.489 0.245,-0.974 0.423,-1.629 l 0.748,-2.802 c 0.012,-0.091 0,-0.181 -0.039,-0.257 -0.039,-0.078 -0.13,-0.141 -0.221,-0.154 -7.221,-1.876 -14.53,-3.958 -21.725,-6.18 m 2.015,-4.049 c -0.024,0 -0.063,-0.012 -0.087,-0.012 -0.13,0 -0.26,0.064 -0.311,0.194 l -0.962,1.939 c -0.052,0.076 -0.052,0.193 -0.012,0.268 0.036,0.091 0.114,0.169 0.205,0.194 5.795,1.785 11.641,3.483 17.384,5.025 0.013,0.012 0.036,0.012 0.064,0.012 l -0.028,0.319 0.055,-0.319 c 0.178,0 0.346,-0.154 0.346,-0.334 0,-0.103 -0.051,-0.167 -0.09,-0.218 -0.796,-1.068 -1.209,-1.62 -2.006,-2.724 -0.051,-0.051 -0.102,-0.102 -0.193,-0.13 -4.688,-1.297 -9.532,-2.712 -14.365,-4.214 m 2.83,-5.641 h -0.118 c -0.115,0 -0.245,0.052 -0.296,0.181 l -1.888,3.777 c -0.039,0.091 -0.039,0.193 -0.012,0.283 0.039,0.091 0.127,0.166 0.217,0.194 4.561,1.439 9.122,2.814 13.557,4.084 0.039,0.013 0.075,0.027 0.102,0.027 0.115,0 0.245,-0.078 0.296,-0.193 0.398,-0.784 0.784,-1.581 1.183,-2.365 l 0.539,-1.08 c 0.051,-0.087 0.051,-0.189 0,-0.28 -0.027,-0.091 -0.118,-0.158 -0.205,-0.193 -4.64,-1.4 -9.149,-2.893 -13.375,-4.435 m 4.084,-0.757 c 0.039,0.091 0.103,0.154 0.206,0.193 2.609,0.872 7.233,2.338 10.111,3.201 0.027,0.012 0.066,0.012 0.103,0.012 0.129,0 0.231,-0.066 0.295,-0.181 1.183,-2.377 2.314,-4.691 3.394,-6.86 0.012,-0.091 0.024,-0.193 0,-0.283 -0.051,-0.091 -0.13,-0.169 -0.232,-0.194 -2.764,-0.823 -7.4,-2.274 -10.112,-3.185 h -0.115 c -0.129,0 -0.245,0.063 -0.311,0.178 l -3.339,6.851 c -0.027,0.075 -0.039,0.189 0,0.268 m 4.664,-16.754 c -0.013,-0.015 -0.064,-0.015 -0.102,-0.015 -0.103,0 -0.245,0.066 -0.296,0.181 l -2.942,5.885 c -0.039,0.076 -0.039,0.194 0,0.284 0.024,0.075 0.103,0.153 0.178,0.178 4.293,1.505 8.791,2.968 13.403,4.317 0.024,0.015 0.052,0.015 0.09,0.015 0.127,0 0.245,-0.079 0.308,-0.194 0.899,-1.864 1.862,-3.855 2.929,-6.09 0.025,-0.09 0.025,-0.193 0,-0.284 -0.051,-0.075 -0.13,-0.153 -0.217,-0.177 -1.517,-0.426 -2.853,-0.812 -4.036,-1.171 -3.161,-0.927 -6.284,-1.915 -9.315,-2.929 m 2.854,-5.976 c -0.13,0.027 -0.233,0.091 -0.272,0.193 l -1.759,3.52 c -0.051,0.091 -0.051,0.181 -0.015,0.284 0.04,0.075 0.103,0.154 0.208,0.178 4.29,1.442 8.776,2.803 13.337,4.075 0.012,0 0.051,0.012 0.09,0.012 0.115,0 0.245,-0.078 0.281,-0.193 1.04,-2.172 2.006,-4.189 2.905,-6.154 0.051,-0.09 0.051,-0.193 0,-0.283 -0.04,-0.09 -0.115,-0.154 -0.206,-0.178 -2.841,-0.76 -5.562,-1.529 -8.108,-2.289 -1.041,-0.308 -2.094,-0.616 -3.122,-0.951 h -0.103 c -0.103,0 -0.205,0.039 -0.269,0.13 -0.72,0.95 -1.8,1.566 -2.967,1.656 m 190.997,-26.467 -18.039,-1.171 17.019,-0.784 -18.757,-1.219 18.233,-0.836 0.259,-0.011 -0.284,-0.015 -21.55,-1.4 18.069,-0.836 -20.072,-1.309 14.534,-0.67 -16.399,-1.065 11.44,-0.527 0.386,-0.013 -0.622,-0.051 -13.604,-0.875 7.836,-0.371 c -12.078,-2.301 -28.241,-3.725 -46.011,-3.725 -9.919,0 -19.349,0.449 -27.828,1.246 l 14.325,0.923 -32.006,1.466 -1.426,0.063 0.808,0.052 29.976,1.966 -36.13,1.656 35.68,2.326 -50.404,2.302 -1.876,0.075 1.735,0.13 46.346,3.019 -42.748,1.952 51.37,3.355 -41.747,1.916 -0.859,0.036 1.321,0.09 50.136,3.264 -22.884,1.053 c 8.057,0.694 16.922,1.092 26.211,1.092 14.814,0 28.512,-0.99 39.653,-2.658 l -8.172,-0.528 15.339,-0.705 1.544,-0.067 -0.898,-0.063 -11.835,-0.769 17.819,-0.824 -12.09,-0.784 16.989,-0.77 -14.702,-0.965 19.674,-0.899 1.067,-0.039 -0.874,-0.064 -17.334,-1.131 19.36,-0.886 -15.083,-0.99 17.05,-0.769 1.647,-0.079 z m 46.533,-3.934 c 0.055,0.259 0.079,0.528 0.079,0.784 0,10.975 -50.842,19.865 -113.568,19.865 -62.742,0 -113.583,-8.89 -113.583,-19.865 0,-0.256 0.024,-0.525 0.09,-0.784 -4.923,2.365 -7.632,4.923 -7.632,7.584 0,11.961 54.233,21.647 121.125,21.647 66.878,0 121.109,-9.686 121.109,-21.647 0,-2.661 -2.709,-5.219 -7.62,-7.584 m 8.018,28.473 c -0.06,-0.075 -0.163,-0.141 -0.283,-0.141 -0.024,0 -0.06,0.015 -0.091,0.027 -1.025,0.319 -2.075,0.643 -3.119,0.95 -2.534,0.745 -5.266,1.518 -8.108,2.275 -0.091,0.024 -0.182,0.09 -0.217,0.18 -0.037,0.091 -0.037,0.205 0,0.296 0.923,1.965 1.876,3.97 2.901,6.142 0.055,0.114 0.169,0.193 0.296,0.193 0.042,0 0.067,-0.016 0.103,-0.016 4.549,-1.269 9.031,-2.645 13.327,-4.06 0.09,-0.038 0.15,-0.102 0.205,-0.192 0.036,-0.088 0.036,-0.206 -0.013,-0.281 l -1.76,-3.52 c -0.037,-0.091 -0.158,-0.169 -0.273,-0.181 -1.17,-0.103 -2.261,-0.706 -2.968,-1.672" /></g><g
           transform="translate(216.9087,178.6003)"
           id="g44"><path
             id="path46"
             style="fill:#231f20;fill-opacity:1;fill-rule:nonzero;stroke:none"
             d="m 0,0 -0.745,7.041 2.093,0.311 0.347,0.075 c 2.133,0.425 3.867,1.439 4.972,2.893 0.937,1.258 1.348,2.736 1.143,4.06 L 4.277,32.046 H -9.366 l -4.396,-19.12 c -0.528,-2.464 0.218,-3.351 0.821,-3.804 1.183,-0.884 3.24,-1.333 5.616,-1.77 l 1.81,-0.324 V 0 h -28.201 l -0.734,7.557 2.287,0.166 c 2.313,0.129 3.804,0.515 4.833,1.249 1.194,0.82 1.966,2.235 2.452,4.431 l 11.372,50.238 c 0.104,0.59 0.142,1.068 0.104,1.49 -0.013,0.95 -0.309,1.773 -0.836,2.39 -0.604,0.732 -1.491,1.221 -2.634,1.465 -0.591,0.142 -1.273,0.205 -2.054,0.205 -0.193,0 -0.401,0 -0.618,-0.012 l -2.504,-0.103 0.678,8.402 h 45.653 v -8.633 l -2.546,0.374 c -0.257,0.024 -0.513,0.036 -0.769,0.036 -0.335,0 -0.681,-0.025 -1.016,-0.088 -1.053,-0.181 -2.031,-0.732 -2.8,-1.557 -0.669,-0.745 -1.131,-1.631 -1.234,-2.452 -0.063,-0.362 -0.051,-0.619 -0.027,-0.745 l 9.87,-53.092 0.037,-0.166 c 0.066,-0.295 0.181,-0.54 0.31,-0.772 0.166,-0.335 0.384,-0.591 0.655,-0.874 1.553,-1.554 4.175,-2.453 7.092,-2.453 0.359,0 0.706,0.012 1.053,0.039 L 37.3,7.261 V 0 Z M 2.196,42.428 -2.187,64.066 -7.068,42.428 Z" /></g><g
           transform="translate(280.752,278.3464)"
           id="g48"><path
             id="path50"
             style="fill:#231f20;fill-opacity:1;fill-rule:nonzero;stroke:none"
             d="m 0,0 v 7.569 l 2.108,0.126 c 2.196,0.13 3.816,0.592 4.818,1.403 0.898,0.706 1.363,1.798 1.363,3.276 v 51.882 c 0,2.184 -0.283,3.533 -0.887,4.253 -0.425,0.529 -1.221,0.797 -2.44,0.797 -0.335,0 -0.694,-0.028 -1.056,-0.063 L 1.453,69.038 v 8.708 H 55.472 V 52.178 l -8.448,0.154 v 2.184 c 0,1.442 -0.09,2.636 -0.283,3.61 -0.603,3.343 -2.153,5.846 -4.597,7.455 -2.534,1.694 -6.19,2.569 -10.896,2.569 -1.128,0 -2.299,-0.054 -3.56,-0.156 V 47.297 c 0,-1.092 0.35,-1.877 0.966,-2.187 0.138,-0.063 0.343,-0.103 0.549,-0.103 h 0.235 c 0.253,0.055 0.513,0.142 0.718,0.296 0.748,0.567 1.026,1.659 0.76,3.047 l -0.361,2.093 8.881,1.916 0.752,-1.568 0.273,-0.475 c 0.397,-0.772 0.772,-1.489 1.145,-2.183 l 0.448,-0.761 c 0.373,-0.643 0.706,-1.218 1.079,-1.825 2.775,-4.459 6.027,-8.645 9.647,-12.425 l 1.316,-1.36 -6.957,-8.839 -1.743,2.247 c -2.456,3.237 -5.075,5.436 -8.018,6.746 -2.196,0.964 -4.615,1.438 -7.349,1.438 -0.748,0 -1.532,-0.039 -2.341,-0.115 V 13.092 c 0.079,-2.094 0.773,-3.508 2.197,-4.419 1.418,-0.899 3.547,-1.439 6.684,-1.695 L 38.627,6.797 V 0 Z" /></g><g
           transform="translate(377.3389,393.4709)"
           id="g52"><path
             id="path54"
             style="fill:#231f20;fill-opacity:1;fill-rule:nonzero;stroke:none"
             d="m 0,0 h -225.549 -3.816 v -3.764 -126.637 -0.168 c 1.695,-38.495 11.577,-68.742 30.555,-89.888 19.04,-21.24 47.077,-33.098 84.865,-34.733 l 0.193,-0.024 0.371,0.051 c 54.956,5.475 90.624,28.292 107.004,68.497 3.174,7.774 5.605,16.203 7.301,25.273 1.671,9.044 2.66,18.694 2.853,28.935 l 0.024,0.103 v 0.063 128.528 l 0,3.764 z m -193.027,-36.491 h 33.326 v -6.99 l -1.269,0.078 h -0.04 -0.114 c -1.249,0 -2.648,-0.744 -3.816,-2.017 -1.183,-1.258 -1.928,-2.839 -1.995,-4.242 v -0.024 -47.412 c 0,-3.674 1.929,-6.63 5.153,-7.903 1.119,-0.449 2.353,-0.681 3.677,-0.681 1.283,0 2.517,0.232 3.647,0.693 3.162,1.3 4.987,4.179 4.987,7.891 v 47.412 0.024 c -0.091,1.388 -0.824,2.984 -1.991,4.229 -1.183,1.286 -2.582,2.03 -3.831,2.03 h -0.127 -0.027 l -1.27,-0.078 v 6.99 h 33.342 v -7.467 l -1.375,0.158 c -0.347,0.024 -0.682,0.063 -1.053,0.063 -1.683,0 -3.252,-0.477 -4.434,-1.313 -1.041,-0.705 -1.708,-1.695 -1.81,-2.697 v -0.063 -42.452 c 0,-0.836 -0.067,-1.735 -0.209,-2.699 -0.217,-1.476 -0.564,-3.02 -1.025,-4.432 -0.579,-1.671 -1.221,-3.174 -2.018,-4.612 -2.776,-5.128 -9.56,-13.723 -23.81,-13.723 h -0.051 l -0.115,0.013 c -9.315,1.206 -15.882,4.111 -20.081,8.838 -3.998,4.524 -5.617,10.434 -4.999,18.054 v 0.063 40.745 c 0,0.063 0,0.127 -0.015,0.205 0,0.012 -0.012,0.039 -0.012,0.063 -0.103,0.99 -0.718,1.94 -1.774,2.697 -1.514,1.069 -3.276,1.301 -4.483,1.301 -0.322,0 -0.681,-0.027 -1.016,-0.051 l -1.372,-0.158 z m 146.771,-103.122 -0.374,-25.675 -0.013,-1.193 h -9.93 l 0.037,1.233 c 0.078,2.763 0.048,6.848 -0.99,10.292 -1.092,3.636 -3.137,5.91 -6.093,6.77 -2.094,0.606 -4.085,0.181 -5.756,-1.207 -2.185,-1.774 -4.006,-4.971 -5.418,-9.508 -1.339,-4.175 -2.227,-9.315 -2.57,-14.89 -0.399,-6.437 -0.031,-12.887 1.026,-18.144 0.809,-4.061 2.443,-9.392 5.605,-11.678 1.357,-0.977 2.823,-1.505 4.222,-1.505 h 0.068 c 1.025,0.015 2.056,0.311 3.004,0.863 1.032,0.591 1.955,1.451 2.739,2.518 2.195,3.017 3.343,7.49 3.252,12.924 l -0.012,1.3 1.309,-0.051 c 0.844,-0.04 1.58,-0.079 2.262,-0.118 0.5,-0.025 0.99,-0.052 1.46,-0.091 0.646,-0.023 1.303,-0.051 1.997,-0.087 0.549,-0.039 1.128,-0.066 1.719,-0.091 l 1.262,-0.066 -1.34,-25.94 -0.066,-1.182 h -6.92 l -0.374,0.347 c -0.158,0.142 -0.284,0.268 -0.411,0.411 -0.223,0.219 -0.428,0.424 -0.645,0.618 -1.273,1.297 -2.468,2.518 -3.814,2.606 -0.193,0.015 -0.41,0.015 -0.657,-0.051 -0.193,-0.012 -0.41,-0.051 -0.67,-0.155 -0.603,-0.178 -1.207,-0.41 -1.798,-0.641 -0.216,-0.077 -0.41,-0.155 -0.639,-0.245 -2.093,-0.835 -4.072,-1.617 -7.186,-1.683 -3.288,-0.064 -6.153,0.579 -8.735,1.954 -2.519,1.31 -4.755,3.301 -6.823,6.091 -7.463,10.099 -10.1,24.875 -7.015,39.559 0.525,2.571 1.246,5.14 2.146,7.66 0.898,2.491 1.939,4.856 3.133,7.067 3.252,6.024 7.376,10.033 12.257,11.934 0.978,0.386 2.009,0.694 3.125,0.914 1.105,0.205 2.233,0.335 3.355,0.371 h 0.512 c 2.311,0 4.423,-0.257 6.438,-0.796 1.912,-0.526 3.698,-1.285 5.629,-2.39 0.398,-0.228 0.808,-0.524 1.333,-0.911 l 0.217,-0.169 c 0.815,-0.576 1.261,-0.871 1.671,-0.871 0.259,0 0.477,0.114 0.616,0.319 0.271,0.359 0.518,0.836 0.736,1.439 0.218,0.618 0.41,1.337 0.67,2.417 l 0.175,0.962 h 6.298 z m 46.328,12.025 h -112.795 v -123.527 c 0,-0.153 0.063,-0.205 -0.118,-0.244 -0.281,-0.027 -0.552,-0.052 -0.835,-0.078 -73.481,3.161 -108.558,45.755 -111.822,121.021 v 2.828 h 112.775 V -3.752 H 0.072 Z" /></g></g></g></g></svg>